<mxfile host="app.diagrams.net" modified="2024-03-17T12:39:29.684Z" agent="Mozilla/5.0 (Windows NT 10.0; Win64; x64) AppleWebKit/537.36 (KHTML, like Gecko) Chrome/122.0.0.0 Safari/537.36" etag="Fs3lW0muIwx9ieHudXLU" version="24.0.7" type="github">
  <diagram name="第 1 页" id="7npGd-YQYyWHJqzHlWsh">
    <mxGraphModel dx="1886" dy="759" grid="0" gridSize="10" guides="1" tooltips="1" connect="1" arrows="1" fold="1" page="0" pageScale="1" pageWidth="827" pageHeight="1169" math="0" shadow="0">
      <root>
        <mxCell id="0" />
        <mxCell id="1" parent="0" />
        <mxCell id="58kvKEXgvSpxOWY9gzpx-71" style="edgeStyle=orthogonalEdgeStyle;rounded=0;orthogonalLoop=1;jettySize=auto;html=1;endArrow=none;endFill=0;labelBackgroundColor=none;fontColor=default;" parent="1" source="WJ2RZyjk4n_26dPryt8_-1" target="WJ2RZyjk4n_26dPryt8_-2" edge="1">
          <mxGeometry relative="1" as="geometry">
            <Array as="points">
              <mxPoint x="320" y="150" />
              <mxPoint x="-82" y="150" />
            </Array>
          </mxGeometry>
        </mxCell>
        <mxCell id="58kvKEXgvSpxOWY9gzpx-72" style="edgeStyle=orthogonalEdgeStyle;rounded=0;orthogonalLoop=1;jettySize=auto;html=1;endArrow=none;endFill=0;labelBackgroundColor=none;fontColor=default;" parent="1" source="WJ2RZyjk4n_26dPryt8_-1" target="58kvKEXgvSpxOWY9gzpx-1" edge="1">
          <mxGeometry relative="1" as="geometry">
            <Array as="points">
              <mxPoint x="320" y="150" />
              <mxPoint x="143" y="150" />
            </Array>
          </mxGeometry>
        </mxCell>
        <mxCell id="58kvKEXgvSpxOWY9gzpx-73" style="edgeStyle=orthogonalEdgeStyle;rounded=0;orthogonalLoop=1;jettySize=auto;html=1;endArrow=none;endFill=0;labelBackgroundColor=none;fontColor=default;" parent="1" source="WJ2RZyjk4n_26dPryt8_-1" target="WJ2RZyjk4n_26dPryt8_-3" edge="1">
          <mxGeometry relative="1" as="geometry" />
        </mxCell>
        <mxCell id="58kvKEXgvSpxOWY9gzpx-74" style="edgeStyle=orthogonalEdgeStyle;rounded=0;orthogonalLoop=1;jettySize=auto;html=1;endArrow=none;endFill=0;labelBackgroundColor=none;fontColor=default;" parent="1" source="WJ2RZyjk4n_26dPryt8_-1" target="WJ2RZyjk4n_26dPryt8_-4" edge="1">
          <mxGeometry relative="1" as="geometry">
            <Array as="points">
              <mxPoint x="320" y="150" />
              <mxPoint x="538" y="150" />
            </Array>
          </mxGeometry>
        </mxCell>
        <mxCell id="58kvKEXgvSpxOWY9gzpx-75" style="edgeStyle=orthogonalEdgeStyle;rounded=0;orthogonalLoop=1;jettySize=auto;html=1;endArrow=none;endFill=0;labelBackgroundColor=none;fontColor=default;" parent="1" source="WJ2RZyjk4n_26dPryt8_-1" target="WJ2RZyjk4n_26dPryt8_-5" edge="1">
          <mxGeometry relative="1" as="geometry">
            <Array as="points">
              <mxPoint x="320" y="150" />
              <mxPoint x="698" y="150" />
            </Array>
          </mxGeometry>
        </mxCell>
        <mxCell id="WJ2RZyjk4n_26dPryt8_-1" value="&lt;font style=&quot;font-size: 16px;&quot;&gt;12306 购票系统&lt;/font&gt;" style="rounded=0;whiteSpace=wrap;html=1;labelBackgroundColor=none;" parent="1" vertex="1">
          <mxGeometry x="240" y="60" width="160" height="50" as="geometry" />
        </mxCell>
        <mxCell id="58kvKEXgvSpxOWY9gzpx-11" style="edgeStyle=orthogonalEdgeStyle;rounded=0;orthogonalLoop=1;jettySize=auto;html=1;endArrow=none;endFill=0;labelBackgroundColor=none;fontColor=default;" parent="1" source="WJ2RZyjk4n_26dPryt8_-2" target="58kvKEXgvSpxOWY9gzpx-9" edge="1">
          <mxGeometry relative="1" as="geometry" />
        </mxCell>
        <mxCell id="58kvKEXgvSpxOWY9gzpx-12" style="edgeStyle=orthogonalEdgeStyle;rounded=0;orthogonalLoop=1;jettySize=auto;html=1;endArrow=none;endFill=0;labelBackgroundColor=none;fontColor=default;" parent="1" source="WJ2RZyjk4n_26dPryt8_-2" target="58kvKEXgvSpxOWY9gzpx-8" edge="1">
          <mxGeometry relative="1" as="geometry" />
        </mxCell>
        <mxCell id="WJ2RZyjk4n_26dPryt8_-2" value="&lt;span style=&quot;font-size: 16px;&quot;&gt;网关服务&lt;/span&gt;" style="rounded=0;whiteSpace=wrap;html=1;labelBackgroundColor=none;" parent="1" vertex="1">
          <mxGeometry x="-140" y="190" width="115" height="50" as="geometry" />
        </mxCell>
        <mxCell id="58kvKEXgvSpxOWY9gzpx-49" style="edgeStyle=orthogonalEdgeStyle;rounded=0;orthogonalLoop=1;jettySize=auto;html=1;endArrow=none;endFill=0;labelBackgroundColor=none;fontColor=default;" parent="1" source="WJ2RZyjk4n_26dPryt8_-3" target="58kvKEXgvSpxOWY9gzpx-44" edge="1">
          <mxGeometry relative="1" as="geometry" />
        </mxCell>
        <mxCell id="58kvKEXgvSpxOWY9gzpx-50" style="edgeStyle=orthogonalEdgeStyle;rounded=0;orthogonalLoop=1;jettySize=auto;html=1;endArrow=none;endFill=0;labelBackgroundColor=none;fontColor=default;" parent="1" source="WJ2RZyjk4n_26dPryt8_-3" target="58kvKEXgvSpxOWY9gzpx-45" edge="1">
          <mxGeometry relative="1" as="geometry" />
        </mxCell>
        <mxCell id="58kvKEXgvSpxOWY9gzpx-51" style="edgeStyle=orthogonalEdgeStyle;rounded=0;orthogonalLoop=1;jettySize=auto;html=1;entryX=0.5;entryY=0;entryDx=0;entryDy=0;endArrow=none;endFill=0;labelBackgroundColor=none;fontColor=default;" parent="1" source="WJ2RZyjk4n_26dPryt8_-3" target="58kvKEXgvSpxOWY9gzpx-46" edge="1">
          <mxGeometry relative="1" as="geometry" />
        </mxCell>
        <mxCell id="58kvKEXgvSpxOWY9gzpx-52" style="edgeStyle=orthogonalEdgeStyle;rounded=0;orthogonalLoop=1;jettySize=auto;html=1;endArrow=none;endFill=0;labelBackgroundColor=none;fontColor=default;" parent="1" source="WJ2RZyjk4n_26dPryt8_-3" target="58kvKEXgvSpxOWY9gzpx-47" edge="1">
          <mxGeometry relative="1" as="geometry" />
        </mxCell>
        <mxCell id="WJ2RZyjk4n_26dPryt8_-3" value="&lt;font style=&quot;font-size: 16px;&quot;&gt;列车服务&lt;/font&gt;" style="rounded=0;whiteSpace=wrap;html=1;labelBackgroundColor=none;" parent="1" vertex="1">
          <mxGeometry x="320.5" y="190" width="115" height="50" as="geometry" />
        </mxCell>
        <mxCell id="58kvKEXgvSpxOWY9gzpx-57" style="edgeStyle=orthogonalEdgeStyle;rounded=0;orthogonalLoop=1;jettySize=auto;html=1;endArrow=none;endFill=0;labelBackgroundColor=none;fontColor=default;" parent="1" source="WJ2RZyjk4n_26dPryt8_-4" target="58kvKEXgvSpxOWY9gzpx-53" edge="1">
          <mxGeometry relative="1" as="geometry" />
        </mxCell>
        <mxCell id="58kvKEXgvSpxOWY9gzpx-58" style="edgeStyle=orthogonalEdgeStyle;rounded=0;orthogonalLoop=1;jettySize=auto;html=1;endArrow=none;endFill=0;labelBackgroundColor=none;fontColor=default;" parent="1" source="WJ2RZyjk4n_26dPryt8_-4" target="58kvKEXgvSpxOWY9gzpx-54" edge="1">
          <mxGeometry relative="1" as="geometry" />
        </mxCell>
        <mxCell id="58kvKEXgvSpxOWY9gzpx-59" style="edgeStyle=orthogonalEdgeStyle;rounded=0;orthogonalLoop=1;jettySize=auto;html=1;entryX=0.5;entryY=0;entryDx=0;entryDy=0;endArrow=none;endFill=0;labelBackgroundColor=none;fontColor=default;" parent="1" source="WJ2RZyjk4n_26dPryt8_-4" target="58kvKEXgvSpxOWY9gzpx-55" edge="1">
          <mxGeometry relative="1" as="geometry" />
        </mxCell>
        <mxCell id="58kvKEXgvSpxOWY9gzpx-60" style="edgeStyle=orthogonalEdgeStyle;rounded=0;orthogonalLoop=1;jettySize=auto;html=1;entryX=0.5;entryY=0;entryDx=0;entryDy=0;endArrow=none;endFill=0;labelBackgroundColor=none;fontColor=default;" parent="1" source="WJ2RZyjk4n_26dPryt8_-4" target="58kvKEXgvSpxOWY9gzpx-56" edge="1">
          <mxGeometry relative="1" as="geometry" />
        </mxCell>
        <mxCell id="WJ2RZyjk4n_26dPryt8_-4" value="&lt;font style=&quot;font-size: 16px;&quot;&gt;订单服务&lt;/font&gt;" style="rounded=0;whiteSpace=wrap;html=1;labelBackgroundColor=none;" parent="1" vertex="1">
          <mxGeometry x="480" y="190" width="115" height="50" as="geometry" />
        </mxCell>
        <mxCell id="58kvKEXgvSpxOWY9gzpx-66" style="edgeStyle=orthogonalEdgeStyle;rounded=0;orthogonalLoop=1;jettySize=auto;html=1;endArrow=none;endFill=0;labelBackgroundColor=none;fontColor=default;" parent="1" source="WJ2RZyjk4n_26dPryt8_-5" target="58kvKEXgvSpxOWY9gzpx-61" edge="1">
          <mxGeometry relative="1" as="geometry" />
        </mxCell>
        <mxCell id="58kvKEXgvSpxOWY9gzpx-67" style="edgeStyle=orthogonalEdgeStyle;rounded=0;orthogonalLoop=1;jettySize=auto;html=1;endArrow=none;endFill=0;labelBackgroundColor=none;fontColor=default;" parent="1" source="WJ2RZyjk4n_26dPryt8_-5" target="58kvKEXgvSpxOWY9gzpx-63" edge="1">
          <mxGeometry relative="1" as="geometry" />
        </mxCell>
        <mxCell id="58kvKEXgvSpxOWY9gzpx-68" style="edgeStyle=orthogonalEdgeStyle;rounded=0;orthogonalLoop=1;jettySize=auto;html=1;entryX=0.5;entryY=0;entryDx=0;entryDy=0;endArrow=none;endFill=0;labelBackgroundColor=none;fontColor=default;" parent="1" source="WJ2RZyjk4n_26dPryt8_-5" target="58kvKEXgvSpxOWY9gzpx-64" edge="1">
          <mxGeometry relative="1" as="geometry" />
        </mxCell>
        <mxCell id="58kvKEXgvSpxOWY9gzpx-70" style="edgeStyle=orthogonalEdgeStyle;rounded=0;orthogonalLoop=1;jettySize=auto;html=1;endArrow=none;endFill=0;labelBackgroundColor=none;fontColor=default;" parent="1" source="WJ2RZyjk4n_26dPryt8_-5" target="58kvKEXgvSpxOWY9gzpx-65" edge="1">
          <mxGeometry relative="1" as="geometry" />
        </mxCell>
        <mxCell id="WJ2RZyjk4n_26dPryt8_-5" value="&lt;span style=&quot;font-size: 16px;&quot;&gt;支付服务&lt;/span&gt;" style="rounded=0;whiteSpace=wrap;html=1;labelBackgroundColor=none;" parent="1" vertex="1">
          <mxGeometry x="640" y="190" width="115" height="50" as="geometry" />
        </mxCell>
        <mxCell id="WJ2RZyjk4n_26dPryt8_-55" style="edgeStyle=orthogonalEdgeStyle;rounded=0;orthogonalLoop=1;jettySize=auto;html=1;endArrow=none;endFill=0;labelBackgroundColor=none;fontColor=default;" parent="1" target="WJ2RZyjk4n_26dPryt8_-60" edge="1">
          <mxGeometry relative="1" as="geometry">
            <mxPoint x="347.25" y="583" as="sourcePoint" />
          </mxGeometry>
        </mxCell>
        <mxCell id="WJ2RZyjk4n_26dPryt8_-58" style="edgeStyle=orthogonalEdgeStyle;rounded=0;orthogonalLoop=1;jettySize=auto;html=1;entryX=0.5;entryY=0;entryDx=0;entryDy=0;endArrow=none;endFill=0;labelBackgroundColor=none;fontColor=default;" parent="1" source="WJ2RZyjk4n_26dPryt8_-59" target="WJ2RZyjk4n_26dPryt8_-61" edge="1">
          <mxGeometry relative="1" as="geometry">
            <Array as="points">
              <mxPoint x="207" y="778" />
              <mxPoint x="533" y="778" />
            </Array>
          </mxGeometry>
        </mxCell>
        <mxCell id="WJ2RZyjk4n_26dPryt8_-59" value="&lt;font style=&quot;font-size: 16px;&quot;&gt;用户名登录&lt;/font&gt;" style="rounded=0;whiteSpace=wrap;html=1;labelBackgroundColor=none;" parent="1" vertex="1">
          <mxGeometry x="113.25" y="628" width="142" height="37" as="geometry" />
        </mxCell>
        <mxCell id="WJ2RZyjk4n_26dPryt8_-60" value="&lt;font style=&quot;font-size: 16px;&quot;&gt;邮箱登录&lt;/font&gt;" style="rounded=0;whiteSpace=wrap;html=1;labelBackgroundColor=none;" parent="1" vertex="1">
          <mxGeometry x="276.25" y="628" width="142" height="37" as="geometry" />
        </mxCell>
        <mxCell id="WJ2RZyjk4n_26dPryt8_-61" value="&lt;font style=&quot;font-size: 16px;&quot;&gt;手机号登录&lt;/font&gt;" style="rounded=0;whiteSpace=wrap;html=1;labelBackgroundColor=none;" parent="1" vertex="1">
          <mxGeometry x="462" y="798" width="142" height="37" as="geometry" />
        </mxCell>
        <mxCell id="58kvKEXgvSpxOWY9gzpx-19" style="edgeStyle=orthogonalEdgeStyle;rounded=0;orthogonalLoop=1;jettySize=auto;html=1;endArrow=none;endFill=0;labelBackgroundColor=none;fontColor=default;" parent="1" source="58kvKEXgvSpxOWY9gzpx-1" target="58kvKEXgvSpxOWY9gzpx-17" edge="1">
          <mxGeometry relative="1" as="geometry" />
        </mxCell>
        <mxCell id="58kvKEXgvSpxOWY9gzpx-20" style="edgeStyle=orthogonalEdgeStyle;rounded=0;orthogonalLoop=1;jettySize=auto;html=1;endArrow=none;endFill=0;labelBackgroundColor=none;fontColor=default;" parent="1" source="58kvKEXgvSpxOWY9gzpx-1" target="58kvKEXgvSpxOWY9gzpx-18" edge="1">
          <mxGeometry relative="1" as="geometry" />
        </mxCell>
        <mxCell id="58kvKEXgvSpxOWY9gzpx-1" value="&lt;font style=&quot;font-size: 16px;&quot;&gt;用户服务&lt;/font&gt;" style="rounded=0;whiteSpace=wrap;html=1;labelBackgroundColor=none;" parent="1" vertex="1">
          <mxGeometry x="85.5" y="188" width="115" height="50" as="geometry" />
        </mxCell>
        <mxCell id="58kvKEXgvSpxOWY9gzpx-8" value="&lt;span style=&quot;font-size: 16px;&quot;&gt;权限控制&lt;/span&gt;" style="rounded=0;whiteSpace=wrap;html=1;labelBackgroundColor=none;" parent="1" vertex="1">
          <mxGeometry x="-123" y="278" width="33" height="121" as="geometry" />
        </mxCell>
        <mxCell id="58kvKEXgvSpxOWY9gzpx-9" value="&lt;span style=&quot;font-size: 16px;&quot;&gt;服务路由&lt;/span&gt;" style="rounded=0;whiteSpace=wrap;html=1;labelBackgroundColor=none;" parent="1" vertex="1">
          <mxGeometry x="-75" y="278" width="33" height="121" as="geometry" />
        </mxCell>
        <mxCell id="58kvKEXgvSpxOWY9gzpx-25" style="edgeStyle=orthogonalEdgeStyle;rounded=0;orthogonalLoop=1;jettySize=auto;html=1;entryX=0.5;entryY=0;entryDx=0;entryDy=0;endArrow=none;endFill=0;labelBackgroundColor=none;fontColor=default;" parent="1" source="58kvKEXgvSpxOWY9gzpx-17" target="58kvKEXgvSpxOWY9gzpx-21" edge="1">
          <mxGeometry relative="1" as="geometry" />
        </mxCell>
        <mxCell id="58kvKEXgvSpxOWY9gzpx-26" style="edgeStyle=orthogonalEdgeStyle;rounded=0;orthogonalLoop=1;jettySize=auto;html=1;endArrow=none;endFill=0;labelBackgroundColor=none;fontColor=default;" parent="1" source="58kvKEXgvSpxOWY9gzpx-17" target="58kvKEXgvSpxOWY9gzpx-22" edge="1">
          <mxGeometry relative="1" as="geometry" />
        </mxCell>
        <mxCell id="58kvKEXgvSpxOWY9gzpx-27" style="edgeStyle=orthogonalEdgeStyle;rounded=0;orthogonalLoop=1;jettySize=auto;html=1;endArrow=none;endFill=0;labelBackgroundColor=none;fontColor=default;" parent="1" source="58kvKEXgvSpxOWY9gzpx-17" target="58kvKEXgvSpxOWY9gzpx-23" edge="1">
          <mxGeometry relative="1" as="geometry" />
        </mxCell>
        <mxCell id="58kvKEXgvSpxOWY9gzpx-28" style="edgeStyle=orthogonalEdgeStyle;rounded=0;orthogonalLoop=1;jettySize=auto;html=1;entryX=0.5;entryY=0;entryDx=0;entryDy=0;endArrow=none;endFill=0;labelBackgroundColor=none;fontColor=default;" parent="1" source="58kvKEXgvSpxOWY9gzpx-17" target="58kvKEXgvSpxOWY9gzpx-24" edge="1">
          <mxGeometry relative="1" as="geometry" />
        </mxCell>
        <mxCell id="58kvKEXgvSpxOWY9gzpx-17" value="&lt;font style=&quot;font-size: 16px;&quot;&gt;乘客管理&lt;/font&gt;" style="rounded=0;whiteSpace=wrap;html=1;labelBackgroundColor=none;" parent="1" vertex="1">
          <mxGeometry y="278" width="115" height="50" as="geometry" />
        </mxCell>
        <mxCell id="58kvKEXgvSpxOWY9gzpx-33" style="edgeStyle=orthogonalEdgeStyle;rounded=0;orthogonalLoop=1;jettySize=auto;html=1;entryX=0.5;entryY=0;entryDx=0;entryDy=0;endArrow=none;endFill=0;labelBackgroundColor=none;fontColor=default;" parent="1" source="58kvKEXgvSpxOWY9gzpx-18" target="58kvKEXgvSpxOWY9gzpx-29" edge="1">
          <mxGeometry relative="1" as="geometry" />
        </mxCell>
        <mxCell id="58kvKEXgvSpxOWY9gzpx-34" style="edgeStyle=orthogonalEdgeStyle;rounded=0;orthogonalLoop=1;jettySize=auto;html=1;endArrow=none;endFill=0;labelBackgroundColor=none;fontColor=default;" parent="1" source="58kvKEXgvSpxOWY9gzpx-18" target="58kvKEXgvSpxOWY9gzpx-30" edge="1">
          <mxGeometry relative="1" as="geometry" />
        </mxCell>
        <mxCell id="58kvKEXgvSpxOWY9gzpx-36" style="edgeStyle=orthogonalEdgeStyle;rounded=0;orthogonalLoop=1;jettySize=auto;html=1;entryX=0.5;entryY=0;entryDx=0;entryDy=0;endArrow=none;endFill=0;labelBackgroundColor=none;fontColor=default;" parent="1" source="58kvKEXgvSpxOWY9gzpx-18" target="58kvKEXgvSpxOWY9gzpx-31" edge="1">
          <mxGeometry relative="1" as="geometry" />
        </mxCell>
        <mxCell id="58kvKEXgvSpxOWY9gzpx-38" style="edgeStyle=orthogonalEdgeStyle;rounded=0;orthogonalLoop=1;jettySize=auto;html=1;endArrow=none;endFill=0;labelBackgroundColor=none;fontColor=default;" parent="1" source="58kvKEXgvSpxOWY9gzpx-18" target="58kvKEXgvSpxOWY9gzpx-32" edge="1">
          <mxGeometry relative="1" as="geometry" />
        </mxCell>
        <mxCell id="58kvKEXgvSpxOWY9gzpx-42" style="edgeStyle=orthogonalEdgeStyle;rounded=0;orthogonalLoop=1;jettySize=auto;html=1;entryX=0.5;entryY=0;entryDx=0;entryDy=0;endArrow=none;endFill=0;labelBackgroundColor=none;fontColor=default;" parent="1" source="58kvKEXgvSpxOWY9gzpx-18" target="58kvKEXgvSpxOWY9gzpx-39" edge="1">
          <mxGeometry relative="1" as="geometry" />
        </mxCell>
        <mxCell id="58kvKEXgvSpxOWY9gzpx-18" value="&lt;font style=&quot;font-size: 16px;&quot;&gt;会员管理&lt;/font&gt;" style="rounded=0;whiteSpace=wrap;html=1;labelBackgroundColor=none;" parent="1" vertex="1">
          <mxGeometry x="156" y="278" width="115" height="50" as="geometry" />
        </mxCell>
        <mxCell id="58kvKEXgvSpxOWY9gzpx-21" value="&lt;span style=&quot;font-size: 16px;&quot;&gt;查询乘客&lt;/span&gt;" style="rounded=0;whiteSpace=wrap;html=1;labelBackgroundColor=none;" parent="1" vertex="1">
          <mxGeometry y="368" width="25" height="121" as="geometry" />
        </mxCell>
        <mxCell id="58kvKEXgvSpxOWY9gzpx-22" value="&lt;span style=&quot;font-size: 16px;&quot;&gt;添加乘客&lt;/span&gt;" style="rounded=0;whiteSpace=wrap;html=1;labelBackgroundColor=none;" parent="1" vertex="1">
          <mxGeometry x="30.5" y="368" width="25" height="121" as="geometry" />
        </mxCell>
        <mxCell id="58kvKEXgvSpxOWY9gzpx-23" value="&lt;span style=&quot;font-size: 16px;&quot;&gt;修改乘客&lt;/span&gt;" style="rounded=0;whiteSpace=wrap;html=1;labelBackgroundColor=none;" parent="1" vertex="1">
          <mxGeometry x="60.5" y="368" width="25" height="121" as="geometry" />
        </mxCell>
        <mxCell id="58kvKEXgvSpxOWY9gzpx-24" value="&lt;span style=&quot;font-size: 16px;&quot;&gt;删除乘客&lt;/span&gt;" style="rounded=0;whiteSpace=wrap;html=1;labelBackgroundColor=none;" parent="1" vertex="1">
          <mxGeometry x="90" y="368" width="25" height="121" as="geometry" />
        </mxCell>
        <mxCell id="58kvKEXgvSpxOWY9gzpx-29" value="&lt;span style=&quot;font-size: 16px;&quot;&gt;查询会员&lt;/span&gt;" style="rounded=0;whiteSpace=wrap;html=1;labelBackgroundColor=none;" parent="1" vertex="1">
          <mxGeometry x="140" y="368" width="25" height="121" as="geometry" />
        </mxCell>
        <mxCell id="58kvKEXgvSpxOWY9gzpx-30" value="&lt;span style=&quot;font-size: 16px;&quot;&gt;注册会员&lt;/span&gt;" style="rounded=0;whiteSpace=wrap;html=1;labelBackgroundColor=none;" parent="1" vertex="1">
          <mxGeometry x="171" y="368" width="25" height="121" as="geometry" />
        </mxCell>
        <mxCell id="58kvKEXgvSpxOWY9gzpx-31" value="&lt;span style=&quot;font-size: 16px;&quot;&gt;注销会员&lt;/span&gt;" style="rounded=0;whiteSpace=wrap;html=1;labelBackgroundColor=none;" parent="1" vertex="1">
          <mxGeometry x="201" y="368" width="25" height="121" as="geometry" />
        </mxCell>
        <mxCell id="58kvKEXgvSpxOWY9gzpx-32" value="&lt;span style=&quot;font-size: 16px;&quot;&gt;修改信息&lt;/span&gt;" style="rounded=0;whiteSpace=wrap;html=1;labelBackgroundColor=none;" parent="1" vertex="1">
          <mxGeometry x="232" y="368" width="25" height="121" as="geometry" />
        </mxCell>
        <mxCell id="58kvKEXgvSpxOWY9gzpx-39" value="&lt;span style=&quot;font-size: 16px;&quot;&gt;登录登出&lt;/span&gt;" style="rounded=0;whiteSpace=wrap;html=1;labelBackgroundColor=none;" parent="1" vertex="1">
          <mxGeometry x="262" y="368" width="25" height="121" as="geometry" />
        </mxCell>
        <mxCell id="58kvKEXgvSpxOWY9gzpx-44" value="&lt;span style=&quot;font-size: 16px;&quot;&gt;查询列车&lt;/span&gt;" style="rounded=0;whiteSpace=wrap;html=1;labelBackgroundColor=none;" parent="1" vertex="1">
          <mxGeometry x="320" y="278" width="25" height="121" as="geometry" />
        </mxCell>
        <mxCell id="58kvKEXgvSpxOWY9gzpx-45" value="&lt;span style=&quot;font-size: 16px;&quot;&gt;查询站点&lt;/span&gt;" style="rounded=0;whiteSpace=wrap;html=1;labelBackgroundColor=none;" parent="1" vertex="1">
          <mxGeometry x="350.5" y="278" width="25" height="121" as="geometry" />
        </mxCell>
        <mxCell id="58kvKEXgvSpxOWY9gzpx-46" value="&lt;span style=&quot;font-size: 16px;&quot;&gt;查询余票&lt;/span&gt;" style="rounded=0;whiteSpace=wrap;html=1;labelBackgroundColor=none;" parent="1" vertex="1">
          <mxGeometry x="380.5" y="278" width="25" height="121" as="geometry" />
        </mxCell>
        <mxCell id="58kvKEXgvSpxOWY9gzpx-47" value="&lt;span style=&quot;font-size: 16px;&quot;&gt;查询路线&lt;/span&gt;" style="rounded=0;whiteSpace=wrap;html=1;labelBackgroundColor=none;" parent="1" vertex="1">
          <mxGeometry x="411" y="278" width="25" height="121" as="geometry" />
        </mxCell>
        <mxCell id="58kvKEXgvSpxOWY9gzpx-53" value="&lt;span style=&quot;font-size: 16px;&quot;&gt;查询订单&lt;/span&gt;" style="rounded=0;whiteSpace=wrap;html=1;labelBackgroundColor=none;" parent="1" vertex="1">
          <mxGeometry x="480" y="278" width="25" height="121" as="geometry" />
        </mxCell>
        <mxCell id="58kvKEXgvSpxOWY9gzpx-54" value="&lt;span style=&quot;font-size: 16px;&quot;&gt;添加订单&lt;/span&gt;" style="rounded=0;whiteSpace=wrap;html=1;labelBackgroundColor=none;" parent="1" vertex="1">
          <mxGeometry x="510" y="278" width="25" height="121" as="geometry" />
        </mxCell>
        <mxCell id="58kvKEXgvSpxOWY9gzpx-55" value="&lt;span style=&quot;font-size: 16px;&quot;&gt;取消订单&lt;/span&gt;" style="rounded=0;whiteSpace=wrap;html=1;labelBackgroundColor=none;" parent="1" vertex="1">
          <mxGeometry x="540" y="278" width="25" height="121" as="geometry" />
        </mxCell>
        <mxCell id="58kvKEXgvSpxOWY9gzpx-56" value="&lt;span style=&quot;font-size: 16px;&quot;&gt;订单明细&lt;/span&gt;" style="rounded=0;whiteSpace=wrap;html=1;labelBackgroundColor=none;" parent="1" vertex="1">
          <mxGeometry x="570" y="278" width="25" height="121" as="geometry" />
        </mxCell>
        <mxCell id="58kvKEXgvSpxOWY9gzpx-61" value="&lt;span style=&quot;font-size: 16px;&quot;&gt;创建支付单&lt;/span&gt;" style="rounded=0;whiteSpace=wrap;html=1;labelBackgroundColor=none;" parent="1" vertex="1">
          <mxGeometry x="640" y="278" width="25" height="121" as="geometry" />
        </mxCell>
        <mxCell id="58kvKEXgvSpxOWY9gzpx-63" value="&lt;span style=&quot;font-size: 16px;&quot;&gt;查询支付单&lt;/span&gt;" style="rounded=0;whiteSpace=wrap;html=1;labelBackgroundColor=none;" parent="1" vertex="1">
          <mxGeometry x="670" y="278" width="25" height="121" as="geometry" />
        </mxCell>
        <mxCell id="58kvKEXgvSpxOWY9gzpx-64" value="&lt;span style=&quot;font-size: 16px;&quot;&gt;支付单回调&lt;/span&gt;" style="rounded=0;whiteSpace=wrap;html=1;labelBackgroundColor=none;" parent="1" vertex="1">
          <mxGeometry x="700" y="278" width="25" height="121" as="geometry" />
        </mxCell>
        <mxCell id="58kvKEXgvSpxOWY9gzpx-65" value="&lt;span style=&quot;font-size: 16px;&quot;&gt;公共退款&lt;/span&gt;" style="rounded=0;whiteSpace=wrap;html=1;labelBackgroundColor=none;" parent="1" vertex="1">
          <mxGeometry x="730" y="278" width="25" height="121" as="geometry" />
        </mxCell>
        <mxCell id="58kvKEXgvSpxOWY9gzpx-77" style="edgeStyle=orthogonalEdgeStyle;rounded=0;orthogonalLoop=1;jettySize=auto;html=1;endArrow=none;endFill=0;labelBackgroundColor=none;fontColor=default;" parent="1" source="58kvKEXgvSpxOWY9gzpx-79" target="58kvKEXgvSpxOWY9gzpx-81" edge="1">
          <mxGeometry relative="1" as="geometry" />
        </mxCell>
        <mxCell id="58kvKEXgvSpxOWY9gzpx-78" style="edgeStyle=orthogonalEdgeStyle;rounded=0;orthogonalLoop=1;jettySize=auto;html=1;endArrow=none;endFill=0;labelBackgroundColor=none;fontColor=default;" parent="1" source="58kvKEXgvSpxOWY9gzpx-79" target="58kvKEXgvSpxOWY9gzpx-80" edge="1">
          <mxGeometry relative="1" as="geometry" />
        </mxCell>
        <mxCell id="58kvKEXgvSpxOWY9gzpx-79" value="&lt;span style=&quot;font-size: 16px;&quot;&gt;网关服务&lt;/span&gt;" style="rounded=0;whiteSpace=wrap;html=1;labelBackgroundColor=none;" parent="1" vertex="1">
          <mxGeometry x="186.25" y="753" width="115" height="50" as="geometry" />
        </mxCell>
        <mxCell id="58kvKEXgvSpxOWY9gzpx-80" value="&lt;span style=&quot;font-size: 16px;&quot;&gt;权限控制&lt;/span&gt;" style="rounded=0;whiteSpace=wrap;html=1;labelBackgroundColor=none;" parent="1" vertex="1">
          <mxGeometry x="41.25" y="856" width="150" height="50" as="geometry" />
        </mxCell>
        <mxCell id="58kvKEXgvSpxOWY9gzpx-81" value="&lt;span style=&quot;font-size: 16px;&quot;&gt;服务路由&lt;/span&gt;" style="rounded=0;whiteSpace=wrap;html=1;labelBackgroundColor=none;" parent="1" vertex="1">
          <mxGeometry x="297.75" y="856" width="150" height="50" as="geometry" />
        </mxCell>
        <mxCell id="hyvLnoyUgG9UPHhdJang-134" style="edgeStyle=orthogonalEdgeStyle;rounded=0;orthogonalLoop=1;jettySize=auto;html=1;fontStyle=1;strokeWidth=2;endArrow=none;endFill=0;labelBackgroundColor=none;fontColor=default;" edge="1" parent="1">
          <mxGeometry relative="1" as="geometry">
            <mxPoint x="785.8181818181815" y="1152" as="sourcePoint" />
            <mxPoint x="-222.00000000000045" y="1306" as="targetPoint" />
            <Array as="points">
              <mxPoint x="786" y="1232" />
              <mxPoint x="-222" y="1232" />
            </Array>
          </mxGeometry>
        </mxCell>
        <mxCell id="hyvLnoyUgG9UPHhdJang-135" style="edgeStyle=orthogonalEdgeStyle;rounded=0;orthogonalLoop=1;jettySize=auto;html=1;fontStyle=1;strokeWidth=2;endArrow=none;endFill=0;labelBackgroundColor=none;fontColor=default;" edge="1" parent="1" source="viv5-Qew5E0bXx8i2xY3-1" target="viv5-Qew5E0bXx8i2xY3-179">
          <mxGeometry relative="1" as="geometry" />
        </mxCell>
        <mxCell id="hyvLnoyUgG9UPHhdJang-136" style="edgeStyle=orthogonalEdgeStyle;rounded=0;orthogonalLoop=1;jettySize=auto;html=1;entryX=0.5;entryY=0;entryDx=0;entryDy=0;fontStyle=1;strokeWidth=2;endArrow=none;endFill=0;labelBackgroundColor=none;fontColor=default;" edge="1" parent="1" source="viv5-Qew5E0bXx8i2xY3-1" target="viv5-Qew5E0bXx8i2xY3-219">
          <mxGeometry relative="1" as="geometry">
            <Array as="points">
              <mxPoint x="786" y="1233" />
              <mxPoint x="1343" y="1233" />
            </Array>
          </mxGeometry>
        </mxCell>
        <mxCell id="hyvLnoyUgG9UPHhdJang-137" style="edgeStyle=orthogonalEdgeStyle;rounded=0;orthogonalLoop=1;jettySize=auto;html=1;fontStyle=1;strokeWidth=2;endArrow=none;endFill=0;labelBackgroundColor=none;fontColor=default;" edge="1" parent="1" source="viv5-Qew5E0bXx8i2xY3-1" target="viv5-Qew5E0bXx8i2xY3-119">
          <mxGeometry relative="1" as="geometry">
            <Array as="points">
              <mxPoint x="786" y="1234" />
              <mxPoint x="1759" y="1234" />
            </Array>
          </mxGeometry>
        </mxCell>
        <mxCell id="hyvLnoyUgG9UPHhdJang-138" style="edgeStyle=orthogonalEdgeStyle;rounded=0;orthogonalLoop=1;jettySize=auto;html=1;fontStyle=1;strokeWidth=2;endArrow=none;endFill=0;labelBackgroundColor=none;fontColor=default;" edge="1" parent="1" source="viv5-Qew5E0bXx8i2xY3-1" target="viv5-Qew5E0bXx8i2xY3-147">
          <mxGeometry relative="1" as="geometry">
            <Array as="points">
              <mxPoint x="786" y="1233" />
              <mxPoint x="179" y="1233" />
            </Array>
          </mxGeometry>
        </mxCell>
        <mxCell id="viv5-Qew5E0bXx8i2xY3-1" value="&lt;font style=&quot;font-size: 30px;&quot;&gt;铁路购票系统&lt;/font&gt;" style="rounded=0;whiteSpace=wrap;html=1;fontStyle=1;strokeWidth=1.5;labelBackgroundColor=none;" parent="1" vertex="1">
          <mxGeometry x="577" y="1082" width="417.75" height="72" as="geometry" />
        </mxCell>
        <mxCell id="viv5-Qew5E0bXx8i2xY3-125" style="edgeStyle=orthogonalEdgeStyle;rounded=0;orthogonalLoop=1;jettySize=auto;html=1;endArrow=none;endFill=0;fontStyle=1;strokeWidth=1.5;labelBackgroundColor=none;fontColor=default;" parent="1" source="viv5-Qew5E0bXx8i2xY3-119" target="viv5-Qew5E0bXx8i2xY3-121" edge="1">
          <mxGeometry relative="1" as="geometry">
            <Array as="points">
              <mxPoint x="1759.5" y="1384" />
              <mxPoint x="1684.5" y="1384" />
            </Array>
          </mxGeometry>
        </mxCell>
        <mxCell id="viv5-Qew5E0bXx8i2xY3-126" style="edgeStyle=orthogonalEdgeStyle;rounded=0;orthogonalLoop=1;jettySize=auto;html=1;endArrow=none;endFill=0;fontStyle=1;strokeWidth=1.5;labelBackgroundColor=none;fontColor=default;" parent="1" source="viv5-Qew5E0bXx8i2xY3-119" target="viv5-Qew5E0bXx8i2xY3-122" edge="1">
          <mxGeometry relative="1" as="geometry" />
        </mxCell>
        <mxCell id="viv5-Qew5E0bXx8i2xY3-127" style="edgeStyle=orthogonalEdgeStyle;rounded=0;orthogonalLoop=1;jettySize=auto;html=1;entryX=0.5;entryY=0;entryDx=0;entryDy=0;endArrow=none;endFill=0;fontStyle=1;strokeWidth=1.5;labelBackgroundColor=none;fontColor=default;" parent="1" source="viv5-Qew5E0bXx8i2xY3-119" target="viv5-Qew5E0bXx8i2xY3-123" edge="1">
          <mxGeometry relative="1" as="geometry" />
        </mxCell>
        <mxCell id="viv5-Qew5E0bXx8i2xY3-128" style="edgeStyle=orthogonalEdgeStyle;rounded=0;orthogonalLoop=1;jettySize=auto;html=1;endArrow=none;endFill=0;fontStyle=1;strokeWidth=1.5;labelBackgroundColor=none;fontColor=default;" parent="1" source="viv5-Qew5E0bXx8i2xY3-119" target="viv5-Qew5E0bXx8i2xY3-124" edge="1">
          <mxGeometry relative="1" as="geometry">
            <Array as="points">
              <mxPoint x="1759.5" y="1384" />
              <mxPoint x="1834.5" y="1384" />
            </Array>
          </mxGeometry>
        </mxCell>
        <mxCell id="viv5-Qew5E0bXx8i2xY3-119" value="&lt;font style=&quot;font-size: 16px;&quot;&gt;支付服务&lt;/font&gt;" style="rounded=0;whiteSpace=wrap;html=1;fontStyle=1;strokeWidth=1.5;labelBackgroundColor=none;" parent="1" vertex="1">
          <mxGeometry x="1701.5" y="1310" width="115" height="50" as="geometry" />
        </mxCell>
        <mxCell id="viv5-Qew5E0bXx8i2xY3-121" value="&lt;span style=&quot;font-size: 16px;&quot;&gt;支付宝支付&lt;/span&gt;" style="rounded=0;whiteSpace=wrap;html=1;fontStyle=1;strokeWidth=1.5;labelBackgroundColor=none;" parent="1" vertex="1">
          <mxGeometry x="1669" y="1407" width="30" height="150" as="geometry" />
        </mxCell>
        <mxCell id="viv5-Qew5E0bXx8i2xY3-122" value="&lt;span style=&quot;font-size: 16px;&quot;&gt;微信支付&lt;/span&gt;" style="rounded=0;whiteSpace=wrap;html=1;fontStyle=1;strokeWidth=1.5;labelBackgroundColor=none;" parent="1" vertex="1">
          <mxGeometry x="1719" y="1407" width="30" height="150" as="geometry" />
        </mxCell>
        <mxCell id="viv5-Qew5E0bXx8i2xY3-123" value="&lt;span style=&quot;font-size: 16px;&quot;&gt;银行卡支付&lt;/span&gt;" style="rounded=0;whiteSpace=wrap;html=1;fontStyle=1;strokeWidth=1.5;labelBackgroundColor=none;" parent="1" vertex="1">
          <mxGeometry x="1769" y="1407" width="30" height="152" as="geometry" />
        </mxCell>
        <mxCell id="viv5-Qew5E0bXx8i2xY3-124" value="&lt;span style=&quot;font-size: 16px;&quot;&gt;支付状态查询&lt;/span&gt;" style="rounded=0;whiteSpace=wrap;html=1;fontStyle=1;strokeWidth=1.5;labelBackgroundColor=none;" parent="1" vertex="1">
          <mxGeometry x="1819" y="1407" width="30" height="152" as="geometry" />
        </mxCell>
        <mxCell id="hyvLnoyUgG9UPHhdJang-131" style="edgeStyle=orthogonalEdgeStyle;rounded=0;orthogonalLoop=1;jettySize=auto;html=1;fontStyle=1;strokeWidth=1.5;labelBackgroundColor=none;fontColor=default;" edge="1" parent="1" source="viv5-Qew5E0bXx8i2xY3-135" target="viv5-Qew5E0bXx8i2xY3-140">
          <mxGeometry relative="1" as="geometry" />
        </mxCell>
        <mxCell id="hyvLnoyUgG9UPHhdJang-132" style="edgeStyle=orthogonalEdgeStyle;rounded=0;orthogonalLoop=1;jettySize=auto;html=1;fontStyle=1;strokeWidth=1.5;labelBackgroundColor=none;fontColor=default;" edge="1" parent="1" source="viv5-Qew5E0bXx8i2xY3-135" target="viv5-Qew5E0bXx8i2xY3-136">
          <mxGeometry relative="1" as="geometry" />
        </mxCell>
        <mxCell id="hyvLnoyUgG9UPHhdJang-133" style="edgeStyle=orthogonalEdgeStyle;rounded=0;orthogonalLoop=1;jettySize=auto;html=1;fontStyle=1;strokeWidth=1.5;labelBackgroundColor=none;fontColor=default;" edge="1" parent="1" source="viv5-Qew5E0bXx8i2xY3-135" target="viv5-Qew5E0bXx8i2xY3-141">
          <mxGeometry relative="1" as="geometry" />
        </mxCell>
        <mxCell id="viv5-Qew5E0bXx8i2xY3-135" value="&lt;span style=&quot;font-size: 16px;&quot;&gt;网关服务&lt;/span&gt;" style="rounded=0;whiteSpace=wrap;html=1;strokeWidth=1.5;labelBackgroundColor=none;" parent="1" vertex="1">
          <mxGeometry x="-292" y="1308" width="139.75" height="51" as="geometry" />
        </mxCell>
        <mxCell id="viv5-Qew5E0bXx8i2xY3-136" value="&lt;span style=&quot;font-size: 16px;&quot;&gt;验证用户是否登录&lt;/span&gt;" style="rounded=0;whiteSpace=wrap;html=1;fontStyle=1;strokeWidth=1.5;labelBackgroundColor=none;" parent="1" vertex="1">
          <mxGeometry x="-283.13" y="1414" width="33" height="182" as="geometry" />
        </mxCell>
        <mxCell id="viv5-Qew5E0bXx8i2xY3-140" value="&lt;span style=&quot;font-size: 16px;&quot;&gt;系统访问白名单&lt;/span&gt;" style="rounded=0;whiteSpace=wrap;html=1;fontStyle=1;strokeWidth=1.5;labelBackgroundColor=none;" parent="1" vertex="1">
          <mxGeometry x="-237.13" y="1414" width="31" height="182" as="geometry" />
        </mxCell>
        <mxCell id="viv5-Qew5E0bXx8i2xY3-141" value="&lt;span style=&quot;font-size: 16px;&quot;&gt;系统访问黑名单&lt;/span&gt;" style="rounded=0;whiteSpace=wrap;html=1;fontStyle=1;strokeWidth=1.5;labelBackgroundColor=none;" parent="1" vertex="1">
          <mxGeometry x="-191.13" y="1414" width="30" height="182" as="geometry" />
        </mxCell>
        <mxCell id="hyvLnoyUgG9UPHhdJang-60" style="edgeStyle=orthogonalEdgeStyle;rounded=0;orthogonalLoop=1;jettySize=auto;html=1;endArrow=none;endFill=0;fontStyle=1;strokeWidth=1.5;labelBackgroundColor=none;fontColor=default;" edge="1" parent="1" source="viv5-Qew5E0bXx8i2xY3-147" target="viv5-Qew5E0bXx8i2xY3-152">
          <mxGeometry relative="1" as="geometry">
            <Array as="points">
              <mxPoint x="178.75" y="1380" />
              <mxPoint x="2.75" y="1380" />
            </Array>
          </mxGeometry>
        </mxCell>
        <mxCell id="hyvLnoyUgG9UPHhdJang-61" style="edgeStyle=orthogonalEdgeStyle;rounded=0;orthogonalLoop=1;jettySize=auto;html=1;endArrow=none;endFill=0;fontStyle=1;strokeWidth=1.5;labelBackgroundColor=none;fontColor=default;" edge="1" parent="1" source="viv5-Qew5E0bXx8i2xY3-147" target="viv5-Qew5E0bXx8i2xY3-165">
          <mxGeometry relative="1" as="geometry">
            <Array as="points">
              <mxPoint x="178.75" y="1380" />
              <mxPoint x="366.75" y="1380" />
            </Array>
          </mxGeometry>
        </mxCell>
        <mxCell id="viv5-Qew5E0bXx8i2xY3-147" value="&lt;font style=&quot;font-size: 16px;&quot;&gt;用户服务&lt;/font&gt;" style="rounded=0;whiteSpace=wrap;html=1;fontStyle=1;strokeWidth=1.5;labelBackgroundColor=none;" parent="1" vertex="1">
          <mxGeometry x="109.25" y="1308" width="140" height="50" as="geometry" />
        </mxCell>
        <mxCell id="hyvLnoyUgG9UPHhdJang-71" style="edgeStyle=orthogonalEdgeStyle;rounded=0;orthogonalLoop=1;jettySize=auto;html=1;endArrow=none;endFill=0;fontStyle=1;strokeWidth=1.5;labelBackgroundColor=none;fontColor=default;" edge="1" parent="1" source="viv5-Qew5E0bXx8i2xY3-152" target="viv5-Qew5E0bXx8i2xY3-155">
          <mxGeometry relative="1" as="geometry" />
        </mxCell>
        <mxCell id="hyvLnoyUgG9UPHhdJang-72" style="edgeStyle=orthogonalEdgeStyle;rounded=0;orthogonalLoop=1;jettySize=auto;html=1;entryX=0.5;entryY=0;entryDx=0;entryDy=0;endArrow=none;endFill=0;fontStyle=1;strokeWidth=1.5;labelBackgroundColor=none;fontColor=default;" edge="1" parent="1" source="viv5-Qew5E0bXx8i2xY3-152" target="viv5-Qew5E0bXx8i2xY3-154">
          <mxGeometry relative="1" as="geometry" />
        </mxCell>
        <mxCell id="hyvLnoyUgG9UPHhdJang-73" style="edgeStyle=orthogonalEdgeStyle;rounded=0;orthogonalLoop=1;jettySize=auto;html=1;endArrow=none;endFill=0;fontStyle=1;strokeWidth=1.5;labelBackgroundColor=none;fontColor=default;" edge="1" parent="1" source="viv5-Qew5E0bXx8i2xY3-152" target="hyvLnoyUgG9UPHhdJang-26">
          <mxGeometry relative="1" as="geometry" />
        </mxCell>
        <mxCell id="hyvLnoyUgG9UPHhdJang-74" style="edgeStyle=orthogonalEdgeStyle;rounded=0;orthogonalLoop=1;jettySize=auto;html=1;endArrow=none;endFill=0;fontStyle=1;strokeWidth=1.5;labelBackgroundColor=none;fontColor=default;" edge="1" parent="1" source="viv5-Qew5E0bXx8i2xY3-152" target="viv5-Qew5E0bXx8i2xY3-153">
          <mxGeometry relative="1" as="geometry">
            <Array as="points">
              <mxPoint x="24.5" y="1473" />
              <mxPoint x="-105.5" y="1473" />
            </Array>
          </mxGeometry>
        </mxCell>
        <mxCell id="hyvLnoyUgG9UPHhdJang-76" style="edgeStyle=orthogonalEdgeStyle;rounded=0;orthogonalLoop=1;jettySize=auto;html=1;endArrow=none;endFill=0;fontStyle=1;strokeWidth=1.5;labelBackgroundColor=none;fontColor=default;" edge="1" parent="1" source="viv5-Qew5E0bXx8i2xY3-152" target="viv5-Qew5E0bXx8i2xY3-156">
          <mxGeometry relative="1" as="geometry" />
        </mxCell>
        <mxCell id="hyvLnoyUgG9UPHhdJang-77" style="edgeStyle=orthogonalEdgeStyle;rounded=0;orthogonalLoop=1;jettySize=auto;html=1;endArrow=none;endFill=0;fontStyle=1;strokeWidth=1.5;labelBackgroundColor=none;fontColor=default;" edge="1" parent="1" source="viv5-Qew5E0bXx8i2xY3-152" target="hyvLnoyUgG9UPHhdJang-39">
          <mxGeometry relative="1" as="geometry" />
        </mxCell>
        <mxCell id="hyvLnoyUgG9UPHhdJang-78" style="edgeStyle=orthogonalEdgeStyle;rounded=0;orthogonalLoop=1;jettySize=auto;html=1;endArrow=none;endFill=0;fontStyle=1;strokeWidth=1.5;labelBackgroundColor=none;fontColor=default;" edge="1" parent="1" source="viv5-Qew5E0bXx8i2xY3-152" target="hyvLnoyUgG9UPHhdJang-58">
          <mxGeometry relative="1" as="geometry">
            <Array as="points">
              <mxPoint x="24.5" y="1473" />
              <mxPoint x="151.5" y="1473" />
            </Array>
          </mxGeometry>
        </mxCell>
        <mxCell id="viv5-Qew5E0bXx8i2xY3-152" value="&lt;span style=&quot;font-size: 16px;&quot;&gt;乘车人管理&lt;/span&gt;" style="rounded=0;whiteSpace=wrap;html=1;fontStyle=1;strokeWidth=1.5;labelBackgroundColor=none;" parent="1" vertex="1">
          <mxGeometry x="-81" y="1414" width="210" height="39" as="geometry" />
        </mxCell>
        <mxCell id="viv5-Qew5E0bXx8i2xY3-153" value="&lt;span style=&quot;font-size: 16px;&quot;&gt;根据姓名查询乘车人&lt;/span&gt;" style="rounded=0;whiteSpace=wrap;html=1;fontStyle=1;strokeWidth=1.5;labelBackgroundColor=none;" parent="1" vertex="1">
          <mxGeometry x="-120" y="1494" width="30" height="180" as="geometry" />
        </mxCell>
        <mxCell id="viv5-Qew5E0bXx8i2xY3-154" value="&lt;span style=&quot;font-size: 16px;&quot;&gt;新增乘车人&lt;/span&gt;" style="rounded=0;whiteSpace=wrap;html=1;fontStyle=1;strokeWidth=1.5;labelBackgroundColor=none;" parent="1" vertex="1">
          <mxGeometry x="-34.5" y="1494" width="30" height="180" as="geometry" />
        </mxCell>
        <mxCell id="viv5-Qew5E0bXx8i2xY3-155" value="&lt;span style=&quot;font-size: 16px;&quot;&gt;修改乘车人&lt;/span&gt;" style="rounded=0;whiteSpace=wrap;html=1;fontStyle=1;strokeWidth=1.5;labelBackgroundColor=none;" parent="1" vertex="1">
          <mxGeometry x="8.5" y="1494" width="30" height="180" as="geometry" />
        </mxCell>
        <mxCell id="viv5-Qew5E0bXx8i2xY3-156" value="&lt;span style=&quot;font-size: 16px;&quot;&gt;移除乘车人&lt;/span&gt;" style="rounded=0;whiteSpace=wrap;html=1;fontStyle=1;strokeWidth=1.5;labelBackgroundColor=none;" parent="1" vertex="1">
          <mxGeometry x="51.5" y="1494" width="30" height="180" as="geometry" />
        </mxCell>
        <mxCell id="viv5-Qew5E0bXx8i2xY3-157" value="&lt;span style=&quot;font-size: 16px;&quot;&gt;根据用户名查询用户&lt;/span&gt;" style="rounded=0;whiteSpace=wrap;html=1;fontStyle=1;strokeWidth=1.5;labelBackgroundColor=none;" parent="1" vertex="1">
          <mxGeometry x="199" y="1494" width="30" height="180" as="geometry" />
        </mxCell>
        <mxCell id="viv5-Qew5E0bXx8i2xY3-158" value="&lt;span style=&quot;font-size: 16px;&quot;&gt;检查用户名是否可用&lt;/span&gt;" style="rounded=0;whiteSpace=wrap;html=1;fontStyle=1;strokeWidth=1.5;labelBackgroundColor=none;" parent="1" vertex="1">
          <mxGeometry x="243" y="1494" width="30" height="180" as="geometry" />
        </mxCell>
        <mxCell id="viv5-Qew5E0bXx8i2xY3-159" value="&lt;span style=&quot;font-size: 16px;&quot;&gt;注册用户&lt;/span&gt;" style="rounded=0;whiteSpace=wrap;html=1;fontStyle=1;strokeWidth=1.5;labelBackgroundColor=none;" parent="1" vertex="1">
          <mxGeometry x="286" y="1494" width="30" height="180" as="geometry" />
        </mxCell>
        <mxCell id="viv5-Qew5E0bXx8i2xY3-160" value="&lt;span style=&quot;font-size: 16px;&quot;&gt;用户登入&lt;/span&gt;" style="rounded=0;whiteSpace=wrap;html=1;fontStyle=1;strokeWidth=1.5;labelBackgroundColor=none;" parent="1" vertex="1">
          <mxGeometry x="330" y="1494" width="30" height="180" as="geometry" />
        </mxCell>
        <mxCell id="hyvLnoyUgG9UPHhdJang-141" style="edgeStyle=orthogonalEdgeStyle;rounded=0;orthogonalLoop=1;jettySize=auto;html=1;labelBackgroundColor=none;fontColor=default;" edge="1" parent="1" source="viv5-Qew5E0bXx8i2xY3-165" target="hyvLnoyUgG9UPHhdJang-1">
          <mxGeometry relative="1" as="geometry" />
        </mxCell>
        <mxCell id="hyvLnoyUgG9UPHhdJang-142" style="edgeStyle=orthogonalEdgeStyle;rounded=0;orthogonalLoop=1;jettySize=auto;html=1;entryX=0.5;entryY=0;entryDx=0;entryDy=0;labelBackgroundColor=none;fontColor=default;" edge="1" parent="1" source="viv5-Qew5E0bXx8i2xY3-165" target="hyvLnoyUgG9UPHhdJang-2">
          <mxGeometry relative="1" as="geometry" />
        </mxCell>
        <mxCell id="hyvLnoyUgG9UPHhdJang-143" style="edgeStyle=orthogonalEdgeStyle;rounded=0;orthogonalLoop=1;jettySize=auto;html=1;entryX=0.5;entryY=0;entryDx=0;entryDy=0;labelBackgroundColor=none;fontColor=default;" edge="1" parent="1" source="viv5-Qew5E0bXx8i2xY3-165" target="hyvLnoyUgG9UPHhdJang-3">
          <mxGeometry relative="1" as="geometry" />
        </mxCell>
        <mxCell id="hyvLnoyUgG9UPHhdJang-144" style="edgeStyle=orthogonalEdgeStyle;rounded=0;orthogonalLoop=1;jettySize=auto;html=1;entryX=0.5;entryY=0;entryDx=0;entryDy=0;labelBackgroundColor=none;fontColor=default;" edge="1" parent="1">
          <mxGeometry relative="1" as="geometry">
            <mxPoint x="388.04824561403507" y="1451.9999999999998" as="sourcePoint" />
            <mxPoint x="519" y="1492.9999999999998" as="targetPoint" />
            <Array as="points">
              <mxPoint x="387.75" y="1473" />
              <mxPoint x="518.75" y="1473" />
            </Array>
          </mxGeometry>
        </mxCell>
        <mxCell id="hyvLnoyUgG9UPHhdJang-145" style="edgeStyle=orthogonalEdgeStyle;rounded=0;orthogonalLoop=1;jettySize=auto;html=1;labelBackgroundColor=none;fontColor=default;" edge="1" parent="1" source="viv5-Qew5E0bXx8i2xY3-165" target="hyvLnoyUgG9UPHhdJang-59">
          <mxGeometry relative="1" as="geometry">
            <Array as="points">
              <mxPoint x="387.75" y="1473" />
              <mxPoint x="561.75" y="1473" />
            </Array>
          </mxGeometry>
        </mxCell>
        <mxCell id="hyvLnoyUgG9UPHhdJang-146" style="edgeStyle=orthogonalEdgeStyle;rounded=0;orthogonalLoop=1;jettySize=auto;html=1;labelBackgroundColor=none;fontColor=default;" edge="1" parent="1" source="viv5-Qew5E0bXx8i2xY3-165" target="viv5-Qew5E0bXx8i2xY3-160">
          <mxGeometry relative="1" as="geometry" />
        </mxCell>
        <mxCell id="hyvLnoyUgG9UPHhdJang-147" style="edgeStyle=orthogonalEdgeStyle;rounded=0;orthogonalLoop=1;jettySize=auto;html=1;labelBackgroundColor=none;fontColor=default;" edge="1" parent="1" source="viv5-Qew5E0bXx8i2xY3-165" target="viv5-Qew5E0bXx8i2xY3-159">
          <mxGeometry relative="1" as="geometry" />
        </mxCell>
        <mxCell id="hyvLnoyUgG9UPHhdJang-148" style="edgeStyle=orthogonalEdgeStyle;rounded=0;orthogonalLoop=1;jettySize=auto;html=1;labelBackgroundColor=none;fontColor=default;" edge="1" parent="1" source="viv5-Qew5E0bXx8i2xY3-165" target="viv5-Qew5E0bXx8i2xY3-158">
          <mxGeometry relative="1" as="geometry">
            <Array as="points">
              <mxPoint x="387.75" y="1473" />
              <mxPoint x="257.75" y="1473" />
            </Array>
          </mxGeometry>
        </mxCell>
        <mxCell id="hyvLnoyUgG9UPHhdJang-149" style="edgeStyle=orthogonalEdgeStyle;rounded=0;orthogonalLoop=1;jettySize=auto;html=1;labelBackgroundColor=none;fontColor=default;" edge="1" parent="1" source="viv5-Qew5E0bXx8i2xY3-165" target="viv5-Qew5E0bXx8i2xY3-157">
          <mxGeometry relative="1" as="geometry">
            <Array as="points">
              <mxPoint x="387.75" y="1472" />
              <mxPoint x="213.75" y="1472" />
            </Array>
          </mxGeometry>
        </mxCell>
        <mxCell id="viv5-Qew5E0bXx8i2xY3-165" value="&lt;span style=&quot;font-size: 16px;&quot;&gt;用户管理&lt;/span&gt;" style="rounded=0;whiteSpace=wrap;html=1;fontStyle=1;strokeWidth=1.5;labelBackgroundColor=none;" parent="1" vertex="1">
          <mxGeometry x="283" y="1414" width="210" height="39" as="geometry" />
        </mxCell>
        <mxCell id="hyvLnoyUgG9UPHhdJang-91" style="edgeStyle=orthogonalEdgeStyle;rounded=0;orthogonalLoop=1;jettySize=auto;html=1;endArrow=none;endFill=0;fontStyle=1;strokeWidth=1.5;labelBackgroundColor=none;fontColor=default;" edge="1" parent="1" source="viv5-Qew5E0bXx8i2xY3-179" target="viv5-Qew5E0bXx8i2xY3-183">
          <mxGeometry relative="1" as="geometry" />
        </mxCell>
        <mxCell id="hyvLnoyUgG9UPHhdJang-92" style="edgeStyle=orthogonalEdgeStyle;rounded=0;orthogonalLoop=1;jettySize=auto;html=1;endArrow=none;endFill=0;fontStyle=1;strokeWidth=1.5;labelBackgroundColor=none;fontColor=default;" edge="1" parent="1" source="viv5-Qew5E0bXx8i2xY3-179" target="viv5-Qew5E0bXx8i2xY3-187">
          <mxGeometry relative="1" as="geometry" />
        </mxCell>
        <mxCell id="viv5-Qew5E0bXx8i2xY3-179" value="&lt;font style=&quot;font-size: 16px;&quot;&gt;购票服务&lt;/font&gt;" style="rounded=0;whiteSpace=wrap;html=1;fontStyle=1;strokeWidth=1.5;labelBackgroundColor=none;" parent="1" vertex="1">
          <mxGeometry x="748.75" y="1310" width="140" height="50" as="geometry" />
        </mxCell>
        <mxCell id="hyvLnoyUgG9UPHhdJang-93" style="edgeStyle=orthogonalEdgeStyle;rounded=0;orthogonalLoop=1;jettySize=auto;html=1;fontStyle=1;strokeWidth=1.5;endArrow=none;endFill=0;labelBackgroundColor=none;fontColor=default;" edge="1" parent="1" source="viv5-Qew5E0bXx8i2xY3-183" target="viv5-Qew5E0bXx8i2xY3-214">
          <mxGeometry relative="1" as="geometry" />
        </mxCell>
        <mxCell id="hyvLnoyUgG9UPHhdJang-94" style="edgeStyle=orthogonalEdgeStyle;rounded=0;orthogonalLoop=1;jettySize=auto;html=1;entryX=0.5;entryY=0;entryDx=0;entryDy=0;fontStyle=1;strokeWidth=1.5;endArrow=none;endFill=0;labelBackgroundColor=none;fontColor=default;" edge="1" parent="1" source="viv5-Qew5E0bXx8i2xY3-183" target="viv5-Qew5E0bXx8i2xY3-213">
          <mxGeometry relative="1" as="geometry" />
        </mxCell>
        <mxCell id="hyvLnoyUgG9UPHhdJang-95" style="edgeStyle=orthogonalEdgeStyle;rounded=0;orthogonalLoop=1;jettySize=auto;html=1;fontStyle=1;strokeWidth=1.5;endArrow=none;endFill=0;labelBackgroundColor=none;fontColor=default;" edge="1" parent="1" source="viv5-Qew5E0bXx8i2xY3-183" target="viv5-Qew5E0bXx8i2xY3-188">
          <mxGeometry relative="1" as="geometry" />
        </mxCell>
        <mxCell id="hyvLnoyUgG9UPHhdJang-96" style="edgeStyle=orthogonalEdgeStyle;rounded=0;orthogonalLoop=1;jettySize=auto;html=1;fontStyle=1;strokeWidth=1.5;endArrow=none;endFill=0;labelBackgroundColor=none;fontColor=default;" edge="1" parent="1" source="viv5-Qew5E0bXx8i2xY3-183" target="hyvLnoyUgG9UPHhdJang-56">
          <mxGeometry relative="1" as="geometry" />
        </mxCell>
        <mxCell id="hyvLnoyUgG9UPHhdJang-97" style="edgeStyle=orthogonalEdgeStyle;rounded=0;orthogonalLoop=1;jettySize=auto;html=1;fontStyle=1;strokeWidth=1.5;endArrow=none;endFill=0;labelBackgroundColor=none;fontColor=default;" edge="1" parent="1" source="viv5-Qew5E0bXx8i2xY3-183" target="viv5-Qew5E0bXx8i2xY3-212">
          <mxGeometry relative="1" as="geometry" />
        </mxCell>
        <mxCell id="viv5-Qew5E0bXx8i2xY3-183" value="&lt;span style=&quot;font-size: 16px;&quot;&gt;车站管理&lt;/span&gt;" style="rounded=0;whiteSpace=wrap;html=1;fontStyle=1;strokeWidth=1.5;labelBackgroundColor=none;" parent="1" vertex="1">
          <mxGeometry x="595.75" y="1407" width="210" height="39" as="geometry" />
        </mxCell>
        <mxCell id="hyvLnoyUgG9UPHhdJang-98" style="edgeStyle=orthogonalEdgeStyle;rounded=0;orthogonalLoop=1;jettySize=auto;html=1;fontStyle=1;strokeWidth=1.5;endArrow=none;endFill=0;labelBackgroundColor=none;fontColor=default;" edge="1" parent="1" source="viv5-Qew5E0bXx8i2xY3-187" target="hyvLnoyUgG9UPHhdJang-33">
          <mxGeometry relative="1" as="geometry" />
        </mxCell>
        <mxCell id="hyvLnoyUgG9UPHhdJang-99" style="edgeStyle=orthogonalEdgeStyle;rounded=0;orthogonalLoop=1;jettySize=auto;html=1;fontStyle=1;strokeWidth=1.5;endArrow=none;endFill=0;labelBackgroundColor=none;fontColor=default;" edge="1" parent="1" source="viv5-Qew5E0bXx8i2xY3-187" target="hyvLnoyUgG9UPHhdJang-82">
          <mxGeometry relative="1" as="geometry" />
        </mxCell>
        <mxCell id="hyvLnoyUgG9UPHhdJang-100" style="edgeStyle=orthogonalEdgeStyle;rounded=0;orthogonalLoop=1;jettySize=auto;html=1;fontStyle=1;strokeWidth=1.5;endArrow=none;endFill=0;labelBackgroundColor=none;fontColor=default;" edge="1" parent="1" source="viv5-Qew5E0bXx8i2xY3-187" target="hyvLnoyUgG9UPHhdJang-79">
          <mxGeometry relative="1" as="geometry" />
        </mxCell>
        <mxCell id="hyvLnoyUgG9UPHhdJang-101" style="edgeStyle=orthogonalEdgeStyle;rounded=0;orthogonalLoop=1;jettySize=auto;html=1;fontStyle=1;strokeWidth=1.5;endArrow=none;endFill=0;labelBackgroundColor=none;fontColor=default;" edge="1" parent="1" source="viv5-Qew5E0bXx8i2xY3-187" target="viv5-Qew5E0bXx8i2xY3-192">
          <mxGeometry relative="1" as="geometry" />
        </mxCell>
        <mxCell id="hyvLnoyUgG9UPHhdJang-102" style="edgeStyle=orthogonalEdgeStyle;rounded=0;orthogonalLoop=1;jettySize=auto;html=1;fontStyle=1;strokeWidth=1.5;endArrow=none;endFill=0;labelBackgroundColor=none;fontColor=default;" edge="1" parent="1" source="viv5-Qew5E0bXx8i2xY3-187" target="hyvLnoyUgG9UPHhdJang-81">
          <mxGeometry relative="1" as="geometry" />
        </mxCell>
        <mxCell id="hyvLnoyUgG9UPHhdJang-103" style="edgeStyle=orthogonalEdgeStyle;rounded=0;orthogonalLoop=1;jettySize=auto;html=1;fontStyle=1;strokeWidth=1.5;endArrow=none;endFill=0;labelBackgroundColor=none;fontColor=default;" edge="1" parent="1" source="viv5-Qew5E0bXx8i2xY3-187" target="viv5-Qew5E0bXx8i2xY3-198">
          <mxGeometry relative="1" as="geometry" />
        </mxCell>
        <mxCell id="viv5-Qew5E0bXx8i2xY3-187" value="&lt;span style=&quot;font-size: 16px;&quot;&gt;车票管理&lt;/span&gt;" style="rounded=0;whiteSpace=wrap;html=1;fontStyle=1;strokeWidth=1.5;labelBackgroundColor=none;" parent="1" vertex="1">
          <mxGeometry x="846.25" y="1407" width="210" height="39" as="geometry" />
        </mxCell>
        <mxCell id="viv5-Qew5E0bXx8i2xY3-188" value="&lt;span style=&quot;font-size: 16px;&quot;&gt;多条件查询车次&lt;/span&gt;" style="rounded=0;whiteSpace=wrap;html=1;fontStyle=1;strokeWidth=1.5;labelBackgroundColor=none;" parent="1" vertex="1">
          <mxGeometry x="731.75" y="1494" width="30" height="180" as="geometry" />
        </mxCell>
        <mxCell id="viv5-Qew5E0bXx8i2xY3-192" value="&lt;span style=&quot;font-size: 16px;&quot;&gt;查询余票信息&lt;/span&gt;" style="rounded=0;whiteSpace=wrap;html=1;fontStyle=1;strokeWidth=1.5;labelBackgroundColor=none;" parent="1" vertex="1">
          <mxGeometry x="831.75" y="1494" width="30" height="180" as="geometry" />
        </mxCell>
        <mxCell id="viv5-Qew5E0bXx8i2xY3-198" value="&lt;span style=&quot;font-size: 16px;&quot;&gt;多人邻座选择算法&lt;/span&gt;" style="rounded=0;whiteSpace=wrap;html=1;fontStyle=1;strokeWidth=1.5;labelBackgroundColor=none;" parent="1" vertex="1">
          <mxGeometry x="1045.25" y="1494" width="30" height="180" as="geometry" />
        </mxCell>
        <mxCell id="viv5-Qew5E0bXx8i2xY3-200" value="&lt;span style=&quot;font-size: 16px;&quot;&gt;退还用户金额&lt;/span&gt;" style="rounded=0;whiteSpace=wrap;html=1;fontStyle=1;strokeWidth=1.5;labelBackgroundColor=none;" parent="1" vertex="1">
          <mxGeometry x="1324.88" y="1493" width="30" height="180" as="geometry" />
        </mxCell>
        <mxCell id="viv5-Qew5E0bXx8i2xY3-201" value="&lt;span style=&quot;font-size: 16px;&quot;&gt;车座信息回滚&lt;/span&gt;" style="rounded=0;whiteSpace=wrap;html=1;fontStyle=1;strokeWidth=1.5;labelBackgroundColor=none;" parent="1" vertex="1">
          <mxGeometry x="1362.38" y="1493" width="30" height="180" as="geometry" />
        </mxCell>
        <mxCell id="viv5-Qew5E0bXx8i2xY3-202" value="&lt;span style=&quot;font-size: 16px;&quot;&gt;订单状态反转&lt;/span&gt;" style="rounded=0;whiteSpace=wrap;html=1;fontStyle=1;strokeWidth=1.5;labelBackgroundColor=none;" parent="1" vertex="1">
          <mxGeometry x="1401.88" y="1493" width="30" height="180" as="geometry" />
        </mxCell>
        <mxCell id="viv5-Qew5E0bXx8i2xY3-212" value="&lt;span style=&quot;font-size: 16px;&quot;&gt;根据城市查询车站&lt;/span&gt;" style="rounded=0;whiteSpace=wrap;html=1;fontStyle=1;strokeWidth=1.5;labelBackgroundColor=none;" parent="1" vertex="1">
          <mxGeometry x="594.75" y="1494" width="30" height="180" as="geometry" />
        </mxCell>
        <mxCell id="viv5-Qew5E0bXx8i2xY3-213" value="&lt;span style=&quot;font-size: 16px;&quot;&gt;查询站点集合&lt;/span&gt;" style="rounded=0;whiteSpace=wrap;html=1;fontStyle=1;strokeWidth=1.5;labelBackgroundColor=none;" parent="1" vertex="1">
          <mxGeometry x="640.75" y="1494" width="30" height="180" as="geometry" />
        </mxCell>
        <mxCell id="viv5-Qew5E0bXx8i2xY3-214" value="&lt;span style=&quot;font-size: 16px;&quot;&gt;根据列车ID查询站点&lt;/span&gt;" style="rounded=0;whiteSpace=wrap;html=1;fontStyle=1;strokeWidth=1.5;labelBackgroundColor=none;" parent="1" vertex="1">
          <mxGeometry x="685.75" y="1494" width="30" height="180" as="geometry" />
        </mxCell>
        <mxCell id="hyvLnoyUgG9UPHhdJang-128" style="edgeStyle=orthogonalEdgeStyle;rounded=0;orthogonalLoop=1;jettySize=auto;html=1;entryX=0.5;entryY=0;entryDx=0;entryDy=0;endArrow=none;endFill=0;fontStyle=1;strokeWidth=1.5;labelBackgroundColor=none;fontColor=default;" edge="1" parent="1">
          <mxGeometry relative="1" as="geometry">
            <mxPoint x="1343.454545454545" y="1358" as="sourcePoint" />
            <mxPoint x="1198.5" y="1410" as="targetPoint" />
            <Array as="points">
              <mxPoint x="1343" y="1388" />
              <mxPoint x="1199" y="1388" />
            </Array>
          </mxGeometry>
        </mxCell>
        <mxCell id="hyvLnoyUgG9UPHhdJang-129" style="edgeStyle=orthogonalEdgeStyle;rounded=0;orthogonalLoop=1;jettySize=auto;html=1;endArrow=none;endFill=0;fontStyle=1;strokeWidth=1.5;labelBackgroundColor=none;fontColor=default;" edge="1" parent="1" source="viv5-Qew5E0bXx8i2xY3-219" target="viv5-Qew5E0bXx8i2xY3-227">
          <mxGeometry relative="1" as="geometry" />
        </mxCell>
        <mxCell id="hyvLnoyUgG9UPHhdJang-130" style="edgeStyle=orthogonalEdgeStyle;rounded=0;orthogonalLoop=1;jettySize=auto;html=1;endArrow=none;endFill=0;fontStyle=1;strokeWidth=1.5;labelBackgroundColor=none;fontColor=default;" edge="1" parent="1" source="viv5-Qew5E0bXx8i2xY3-219" target="viv5-Qew5E0bXx8i2xY3-232">
          <mxGeometry relative="1" as="geometry">
            <Array as="points">
              <mxPoint x="1343" y="1388" />
              <mxPoint x="1572" y="1388" />
            </Array>
          </mxGeometry>
        </mxCell>
        <mxCell id="viv5-Qew5E0bXx8i2xY3-219" value="&lt;font style=&quot;font-size: 16px;&quot;&gt;订单服务&lt;/font&gt;" style="rounded=0;whiteSpace=wrap;html=1;fontStyle=1;strokeWidth=1.5;labelBackgroundColor=none;" parent="1" vertex="1">
          <mxGeometry x="1273.5" y="1310" width="140" height="50" as="geometry" />
        </mxCell>
        <mxCell id="hyvLnoyUgG9UPHhdJang-115" style="edgeStyle=orthogonalEdgeStyle;rounded=0;orthogonalLoop=1;jettySize=auto;html=1;entryX=0.5;entryY=0;entryDx=0;entryDy=0;fontStyle=1;strokeWidth=1.5;endArrow=none;endFill=0;labelBackgroundColor=none;fontColor=default;" edge="1" parent="1" source="viv5-Qew5E0bXx8i2xY3-223" target="hyvLnoyUgG9UPHhdJang-105">
          <mxGeometry relative="1" as="geometry" />
        </mxCell>
        <mxCell id="hyvLnoyUgG9UPHhdJang-116" style="edgeStyle=orthogonalEdgeStyle;rounded=0;orthogonalLoop=1;jettySize=auto;html=1;fontStyle=1;strokeWidth=1.5;endArrow=none;endFill=0;labelBackgroundColor=none;fontColor=default;" edge="1" parent="1" source="viv5-Qew5E0bXx8i2xY3-223" target="hyvLnoyUgG9UPHhdJang-104">
          <mxGeometry relative="1" as="geometry" />
        </mxCell>
        <mxCell id="hyvLnoyUgG9UPHhdJang-117" style="edgeStyle=orthogonalEdgeStyle;rounded=0;orthogonalLoop=1;jettySize=auto;html=1;fontStyle=1;strokeWidth=1.5;endArrow=none;endFill=0;labelBackgroundColor=none;fontColor=default;" edge="1" parent="1" source="viv5-Qew5E0bXx8i2xY3-223" target="viv5-Qew5E0bXx8i2xY3-224">
          <mxGeometry relative="1" as="geometry" />
        </mxCell>
        <mxCell id="hyvLnoyUgG9UPHhdJang-118" style="edgeStyle=orthogonalEdgeStyle;rounded=0;orthogonalLoop=1;jettySize=auto;html=1;fontStyle=1;strokeWidth=1.5;endArrow=none;endFill=0;labelBackgroundColor=none;fontColor=default;" edge="1" parent="1" source="viv5-Qew5E0bXx8i2xY3-223" target="viv5-Qew5E0bXx8i2xY3-225">
          <mxGeometry relative="1" as="geometry" />
        </mxCell>
        <mxCell id="hyvLnoyUgG9UPHhdJang-119" style="edgeStyle=orthogonalEdgeStyle;rounded=0;orthogonalLoop=1;jettySize=auto;html=1;fontStyle=1;strokeWidth=1.5;endArrow=none;endFill=0;labelBackgroundColor=none;fontColor=default;" edge="1" parent="1" source="viv5-Qew5E0bXx8i2xY3-223" target="viv5-Qew5E0bXx8i2xY3-226">
          <mxGeometry relative="1" as="geometry" />
        </mxCell>
        <mxCell id="viv5-Qew5E0bXx8i2xY3-223" value="&lt;span style=&quot;font-size: 16px;&quot;&gt;创建车票订单&lt;/span&gt;" style="rounded=0;whiteSpace=wrap;html=1;fontStyle=1;strokeWidth=1.5;labelBackgroundColor=none;" parent="1" vertex="1">
          <mxGeometry x="1093.5" y="1412" width="210" height="39" as="geometry" />
        </mxCell>
        <mxCell id="viv5-Qew5E0bXx8i2xY3-224" value="&lt;span style=&quot;font-size: 16px;&quot;&gt;雪花算法实现唯一ID&lt;/span&gt;" style="rounded=0;whiteSpace=wrap;html=1;fontStyle=1;strokeWidth=1.5;labelBackgroundColor=none;" parent="1" vertex="1">
          <mxGeometry x="1183.5" y="1494" width="30" height="180" as="geometry" />
        </mxCell>
        <mxCell id="viv5-Qew5E0bXx8i2xY3-225" value="&lt;span style=&quot;font-size: 16px;&quot;&gt;延迟关闭订单&lt;/span&gt;" style="rounded=0;whiteSpace=wrap;html=1;fontStyle=1;strokeWidth=1.5;labelBackgroundColor=none;" parent="1" vertex="1">
          <mxGeometry x="1228.5" y="1494" width="30" height="180" as="geometry" />
        </mxCell>
        <mxCell id="viv5-Qew5E0bXx8i2xY3-226" value="&lt;span style=&quot;font-size: 16px;&quot;&gt;防止订单重复提交&lt;/span&gt;" style="rounded=0;whiteSpace=wrap;html=1;fontStyle=1;strokeWidth=1.5;labelBackgroundColor=none;" parent="1" vertex="1">
          <mxGeometry x="1273.5" y="1494" width="30" height="180" as="geometry" />
        </mxCell>
        <mxCell id="hyvLnoyUgG9UPHhdJang-111" style="edgeStyle=orthogonalEdgeStyle;rounded=0;orthogonalLoop=1;jettySize=auto;html=1;fontStyle=1;strokeWidth=1.5;endArrow=none;endFill=0;labelBackgroundColor=none;fontColor=default;" edge="1" parent="1" source="viv5-Qew5E0bXx8i2xY3-227" target="viv5-Qew5E0bXx8i2xY3-200">
          <mxGeometry relative="1" as="geometry" />
        </mxCell>
        <mxCell id="hyvLnoyUgG9UPHhdJang-112" style="edgeStyle=orthogonalEdgeStyle;rounded=0;orthogonalLoop=1;jettySize=auto;html=1;entryX=0.5;entryY=0;entryDx=0;entryDy=0;fontStyle=1;strokeWidth=1.5;endArrow=none;endFill=0;labelBackgroundColor=none;fontColor=default;" edge="1" parent="1" source="viv5-Qew5E0bXx8i2xY3-227" target="viv5-Qew5E0bXx8i2xY3-201">
          <mxGeometry relative="1" as="geometry" />
        </mxCell>
        <mxCell id="hyvLnoyUgG9UPHhdJang-113" style="edgeStyle=orthogonalEdgeStyle;rounded=0;orthogonalLoop=1;jettySize=auto;html=1;entryX=0.5;entryY=0;entryDx=0;entryDy=0;fontStyle=1;strokeWidth=1.5;endArrow=none;endFill=0;labelBackgroundColor=none;fontColor=default;" edge="1" parent="1" source="viv5-Qew5E0bXx8i2xY3-227" target="viv5-Qew5E0bXx8i2xY3-202">
          <mxGeometry relative="1" as="geometry" />
        </mxCell>
        <mxCell id="hyvLnoyUgG9UPHhdJang-114" style="edgeStyle=orthogonalEdgeStyle;rounded=0;orthogonalLoop=1;jettySize=auto;html=1;fontStyle=1;strokeWidth=1.5;endArrow=none;endFill=0;labelBackgroundColor=none;fontColor=default;" edge="1" parent="1" source="viv5-Qew5E0bXx8i2xY3-227" target="hyvLnoyUgG9UPHhdJang-107">
          <mxGeometry relative="1" as="geometry" />
        </mxCell>
        <mxCell id="viv5-Qew5E0bXx8i2xY3-227" value="&lt;span style=&quot;font-size: 16px;&quot;&gt;取消订单&lt;/span&gt;" style="rounded=0;whiteSpace=wrap;html=1;fontStyle=1;strokeWidth=1.5;labelBackgroundColor=none;" parent="1" vertex="1">
          <mxGeometry x="1321" y="1414" width="153.75" height="39" as="geometry" />
        </mxCell>
        <mxCell id="hyvLnoyUgG9UPHhdJang-124" style="edgeStyle=orthogonalEdgeStyle;rounded=0;orthogonalLoop=1;jettySize=auto;html=1;fontStyle=1;strokeWidth=1.5;endArrow=none;endFill=0;labelBackgroundColor=none;fontColor=default;" edge="1" parent="1" source="viv5-Qew5E0bXx8i2xY3-232" target="viv5-Qew5E0bXx8i2xY3-233">
          <mxGeometry relative="1" as="geometry" />
        </mxCell>
        <mxCell id="hyvLnoyUgG9UPHhdJang-125" style="edgeStyle=orthogonalEdgeStyle;rounded=0;orthogonalLoop=1;jettySize=auto;html=1;fontStyle=1;strokeWidth=1.5;endArrow=none;endFill=0;labelBackgroundColor=none;fontColor=default;" edge="1" parent="1" source="viv5-Qew5E0bXx8i2xY3-232" target="viv5-Qew5E0bXx8i2xY3-234">
          <mxGeometry relative="1" as="geometry" />
        </mxCell>
        <mxCell id="hyvLnoyUgG9UPHhdJang-126" style="edgeStyle=orthogonalEdgeStyle;rounded=0;orthogonalLoop=1;jettySize=auto;html=1;entryX=0.5;entryY=0;entryDx=0;entryDy=0;fontStyle=1;strokeWidth=1.5;endArrow=none;endFill=0;labelBackgroundColor=none;fontColor=default;" edge="1" parent="1" source="viv5-Qew5E0bXx8i2xY3-232" target="viv5-Qew5E0bXx8i2xY3-235">
          <mxGeometry relative="1" as="geometry" />
        </mxCell>
        <mxCell id="hyvLnoyUgG9UPHhdJang-127" style="edgeStyle=orthogonalEdgeStyle;rounded=0;orthogonalLoop=1;jettySize=auto;html=1;fontStyle=1;strokeWidth=1.5;endArrow=none;endFill=0;labelBackgroundColor=none;fontColor=default;" edge="1" parent="1" source="viv5-Qew5E0bXx8i2xY3-232" target="hyvLnoyUgG9UPHhdJang-123">
          <mxGeometry relative="1" as="geometry" />
        </mxCell>
        <mxCell id="viv5-Qew5E0bXx8i2xY3-232" value="&lt;span style=&quot;font-size: 16px;&quot;&gt;订单查询&lt;/span&gt;" style="rounded=0;whiteSpace=wrap;html=1;fontStyle=1;strokeWidth=1.5;labelBackgroundColor=none;" parent="1" vertex="1">
          <mxGeometry x="1500.38" y="1412" width="142.25" height="39" as="geometry" />
        </mxCell>
        <mxCell id="viv5-Qew5E0bXx8i2xY3-233" value="&lt;span style=&quot;font-size: 16px;&quot;&gt;敏感数据查询脱敏&lt;/span&gt;" style="rounded=0;whiteSpace=wrap;html=1;fontStyle=1;strokeWidth=1.5;labelBackgroundColor=none;" parent="1" vertex="1">
          <mxGeometry x="1488.63" y="1491" width="30" height="180" as="geometry" />
        </mxCell>
        <mxCell id="viv5-Qew5E0bXx8i2xY3-234" value="&lt;span style=&quot;font-size: 16px;&quot;&gt;敏感数据入库加密&lt;/span&gt;" style="rounded=0;whiteSpace=wrap;html=1;fontStyle=1;strokeWidth=1.5;labelBackgroundColor=none;" parent="1" vertex="1">
          <mxGeometry x="1533.63" y="1491" width="30" height="180" as="geometry" />
        </mxCell>
        <mxCell id="viv5-Qew5E0bXx8i2xY3-235" value="&lt;span style=&quot;font-size: 16px;&quot;&gt;乘车人查询本人订单&lt;/span&gt;" style="rounded=0;whiteSpace=wrap;html=1;fontStyle=1;strokeWidth=1.5;labelBackgroundColor=none;" parent="1" vertex="1">
          <mxGeometry x="1578.63" y="1491" width="30" height="180" as="geometry" />
        </mxCell>
        <mxCell id="viv5-Qew5E0bXx8i2xY3-258" style="edgeStyle=orthogonalEdgeStyle;rounded=0;orthogonalLoop=1;jettySize=auto;html=1;endArrow=none;endFill=0;labelBackgroundColor=none;fontColor=default;" parent="1" source="viv5-Qew5E0bXx8i2xY3-251" target="viv5-Qew5E0bXx8i2xY3-254" edge="1">
          <mxGeometry relative="1" as="geometry" />
        </mxCell>
        <mxCell id="viv5-Qew5E0bXx8i2xY3-259" style="edgeStyle=orthogonalEdgeStyle;rounded=0;orthogonalLoop=1;jettySize=auto;html=1;endArrow=none;endFill=0;labelBackgroundColor=none;fontColor=default;" parent="1" source="viv5-Qew5E0bXx8i2xY3-251" target="viv5-Qew5E0bXx8i2xY3-255" edge="1">
          <mxGeometry relative="1" as="geometry">
            <Array as="points">
              <mxPoint x="1138" y="2352" />
              <mxPoint x="1443" y="2352" />
            </Array>
          </mxGeometry>
        </mxCell>
        <mxCell id="viv5-Qew5E0bXx8i2xY3-260" style="edgeStyle=orthogonalEdgeStyle;rounded=0;orthogonalLoop=1;jettySize=auto;html=1;endArrow=none;endFill=0;labelBackgroundColor=none;fontColor=default;" parent="1" source="viv5-Qew5E0bXx8i2xY3-251" target="viv5-Qew5E0bXx8i2xY3-253" edge="1">
          <mxGeometry relative="1" as="geometry" />
        </mxCell>
        <mxCell id="viv5-Qew5E0bXx8i2xY3-262" style="edgeStyle=orthogonalEdgeStyle;rounded=0;orthogonalLoop=1;jettySize=auto;html=1;endArrow=none;endFill=0;labelBackgroundColor=none;fontColor=default;" parent="1" source="viv5-Qew5E0bXx8i2xY3-251" target="viv5-Qew5E0bXx8i2xY3-252" edge="1">
          <mxGeometry relative="1" as="geometry">
            <Array as="points">
              <mxPoint x="1138" y="2352" />
              <mxPoint x="835" y="2352" />
            </Array>
          </mxGeometry>
        </mxCell>
        <mxCell id="viv5-Qew5E0bXx8i2xY3-251" value="&lt;font style=&quot;font-size: 16px;&quot;&gt;支付服务&lt;/font&gt;" style="rounded=0;whiteSpace=wrap;html=1;labelBackgroundColor=none;" parent="1" vertex="1">
          <mxGeometry x="1037.5" y="2266" width="200" height="50" as="geometry" />
        </mxCell>
        <mxCell id="viv5-Qew5E0bXx8i2xY3-252" value="&lt;span style=&quot;font-size: 16px;&quot;&gt;支付宝支付&lt;/span&gt;" style="rounded=0;whiteSpace=wrap;html=1;labelBackgroundColor=none;" parent="1" vertex="1">
          <mxGeometry x="760" y="2388" width="150" height="50" as="geometry" />
        </mxCell>
        <mxCell id="viv5-Qew5E0bXx8i2xY3-253" value="&lt;span style=&quot;font-size: 16px;&quot;&gt;微信支付&lt;/span&gt;" style="rounded=0;whiteSpace=wrap;html=1;labelBackgroundColor=none;" parent="1" vertex="1">
          <mxGeometry x="963" y="2388" width="150" height="50" as="geometry" />
        </mxCell>
        <mxCell id="viv5-Qew5E0bXx8i2xY3-254" value="&lt;span style=&quot;font-size: 16px;&quot;&gt;银行卡支付&lt;/span&gt;" style="rounded=0;whiteSpace=wrap;html=1;labelBackgroundColor=none;" parent="1" vertex="1">
          <mxGeometry x="1165" y="2388" width="150" height="50" as="geometry" />
        </mxCell>
        <mxCell id="viv5-Qew5E0bXx8i2xY3-255" value="&lt;span style=&quot;font-size: 16px;&quot;&gt;支付状态查询&lt;/span&gt;" style="rounded=0;whiteSpace=wrap;html=1;labelBackgroundColor=none;" parent="1" vertex="1">
          <mxGeometry x="1368" y="2388" width="150" height="50" as="geometry" />
        </mxCell>
        <mxCell id="hyvLnoyUgG9UPHhdJang-1" value="&lt;span style=&quot;font-size: 16px;&quot;&gt;用户登出&lt;/span&gt;" style="rounded=0;whiteSpace=wrap;html=1;fontStyle=1;strokeWidth=1.5;labelBackgroundColor=none;" vertex="1" parent="1">
          <mxGeometry x="373" y="1494" width="30" height="180" as="geometry" />
        </mxCell>
        <mxCell id="hyvLnoyUgG9UPHhdJang-2" value="&lt;span style=&quot;font-size: 16px;&quot;&gt;修改用户&lt;/span&gt;" style="rounded=0;whiteSpace=wrap;html=1;fontStyle=1;strokeWidth=1.5;labelBackgroundColor=none;" vertex="1" parent="1">
          <mxGeometry x="417" y="1494" width="30" height="180" as="geometry" />
        </mxCell>
        <mxCell id="hyvLnoyUgG9UPHhdJang-3" value="&lt;span style=&quot;font-size: 16px;&quot;&gt;注销用户&lt;/span&gt;" style="rounded=0;whiteSpace=wrap;html=1;fontStyle=1;strokeWidth=1.5;labelBackgroundColor=none;" vertex="1" parent="1">
          <mxGeometry x="460" y="1494" width="30" height="180" as="geometry" />
        </mxCell>
        <mxCell id="hyvLnoyUgG9UPHhdJang-26" value="&lt;span style=&quot;font-size: 16px;&quot;&gt;查询所有乘车人&lt;/span&gt;" style="rounded=0;whiteSpace=wrap;html=1;fontStyle=1;strokeWidth=1.5;labelBackgroundColor=none;" vertex="1" parent="1">
          <mxGeometry x="-77.5" y="1494" width="30" height="180" as="geometry" />
        </mxCell>
        <mxCell id="hyvLnoyUgG9UPHhdJang-33" value="&lt;span style=&quot;font-size: 16px;&quot;&gt;余票扣减&lt;/span&gt;" style="rounded=0;whiteSpace=wrap;html=1;fontStyle=1;strokeWidth=1.5;labelBackgroundColor=none;" vertex="1" parent="1">
          <mxGeometry x="916.75" y="1494" width="30" height="180" as="geometry" />
        </mxCell>
        <mxCell id="hyvLnoyUgG9UPHhdJang-36" value="" style="rounded=0;whiteSpace=wrap;html=1;labelBackgroundColor=none;" vertex="1" parent="1">
          <mxGeometry x="529" y="2713" width="142" height="39" as="geometry" />
        </mxCell>
        <mxCell id="hyvLnoyUgG9UPHhdJang-38" value="&lt;span style=&quot;font-size: 16px;&quot;&gt;用户分库分表&lt;/span&gt;" style="rounded=0;whiteSpace=wrap;html=1;fontStyle=1;strokeWidth=1.5;labelBackgroundColor=none;" vertex="1" parent="1">
          <mxGeometry x="504" y="1494" width="30" height="180" as="geometry" />
        </mxCell>
        <mxCell id="hyvLnoyUgG9UPHhdJang-39" value="&lt;span style=&quot;font-size: 16px;&quot;&gt;乘车人分库分表&lt;/span&gt;" style="rounded=0;whiteSpace=wrap;html=1;fontStyle=1;strokeWidth=1.5;labelBackgroundColor=none;" vertex="1" parent="1">
          <mxGeometry x="93.5" y="1494" width="30" height="180" as="geometry" />
        </mxCell>
        <mxCell id="hyvLnoyUgG9UPHhdJang-56" value="&lt;span style=&quot;font-size: 16px;&quot;&gt;车站信息构建缓存&lt;/span&gt;" style="rounded=0;whiteSpace=wrap;html=1;fontStyle=1;strokeWidth=1.5;labelBackgroundColor=none;" vertex="1" parent="1">
          <mxGeometry x="776.75" y="1494" width="30" height="180" as="geometry" />
        </mxCell>
        <mxCell id="hyvLnoyUgG9UPHhdJang-58" value="&lt;span style=&quot;font-size: 16px;&quot;&gt;雪花算法实现唯一ID&lt;/span&gt;" style="rounded=0;whiteSpace=wrap;html=1;fontStyle=1;strokeWidth=1.5;labelBackgroundColor=none;" vertex="1" parent="1">
          <mxGeometry x="136.5" y="1494" width="30" height="180" as="geometry" />
        </mxCell>
        <mxCell id="hyvLnoyUgG9UPHhdJang-59" value="&lt;span style=&quot;font-size: 16px;&quot;&gt;雪花算法实现唯一ID&lt;/span&gt;" style="rounded=0;whiteSpace=wrap;html=1;fontStyle=1;strokeWidth=1.5;labelBackgroundColor=none;" vertex="1" parent="1">
          <mxGeometry x="547" y="1494" width="30" height="180" as="geometry" />
        </mxCell>
        <mxCell id="hyvLnoyUgG9UPHhdJang-79" value="&lt;span style=&quot;font-size: 16px;&quot;&gt;余票信息构建缓存&lt;/span&gt;" style="rounded=0;whiteSpace=wrap;html=1;fontStyle=1;strokeWidth=1.5;labelBackgroundColor=none;" vertex="1" parent="1">
          <mxGeometry x="874.75" y="1494" width="30" height="180" as="geometry" />
        </mxCell>
        <mxCell id="hyvLnoyUgG9UPHhdJang-81" value="&lt;span style=&quot;font-size: 16px;&quot;&gt;用户新增车票&lt;/span&gt;" style="rounded=0;whiteSpace=wrap;html=1;fontStyle=1;strokeWidth=1.5;labelBackgroundColor=none;" vertex="1" parent="1">
          <mxGeometry x="1002.75" y="1494" width="30" height="180" as="geometry" />
        </mxCell>
        <mxCell id="hyvLnoyUgG9UPHhdJang-82" value="&lt;span style=&quot;font-size: 16px;&quot;&gt;分布式锁解决超卖&lt;/span&gt;" style="rounded=0;whiteSpace=wrap;html=1;fontStyle=1;strokeWidth=1.5;labelBackgroundColor=none;" vertex="1" parent="1">
          <mxGeometry x="959.75" y="1494" width="30" height="180" as="geometry" />
        </mxCell>
        <mxCell id="hyvLnoyUgG9UPHhdJang-104" value="&lt;span style=&quot;font-size: 16px;&quot;&gt;订单表分库分表&lt;/span&gt;" style="rounded=0;whiteSpace=wrap;html=1;fontStyle=1;strokeWidth=1.5;labelBackgroundColor=none;" vertex="1" parent="1">
          <mxGeometry x="1138.5" y="1494" width="30" height="180" as="geometry" />
        </mxCell>
        <mxCell id="hyvLnoyUgG9UPHhdJang-105" value="&lt;span style=&quot;font-size: 16px;&quot;&gt;基因算法&lt;/span&gt;" style="rounded=0;whiteSpace=wrap;html=1;fontStyle=1;strokeWidth=1.5;labelBackgroundColor=none;" vertex="1" parent="1">
          <mxGeometry x="1093" y="1494" width="30" height="180" as="geometry" />
        </mxCell>
        <mxCell id="hyvLnoyUgG9UPHhdJang-107" value="&lt;span style=&quot;font-size: 16px;&quot;&gt;延时取消订单&lt;/span&gt;" style="rounded=0;whiteSpace=wrap;html=1;fontStyle=1;strokeWidth=1.5;labelBackgroundColor=none;" vertex="1" parent="1">
          <mxGeometry x="1440.38" y="1493" width="30" height="180" as="geometry" />
        </mxCell>
        <mxCell id="hyvLnoyUgG9UPHhdJang-123" value="&lt;span style=&quot;font-size: 16px;&quot;&gt;订单ID查询订单&lt;/span&gt;" style="rounded=0;whiteSpace=wrap;html=1;fontStyle=1;strokeWidth=1.5;labelBackgroundColor=none;" vertex="1" parent="1">
          <mxGeometry x="1623.63" y="1491" width="30" height="180" as="geometry" />
        </mxCell>
        <mxCell id="hyvLnoyUgG9UPHhdJang-150" style="edgeStyle=orthogonalEdgeStyle;rounded=0;orthogonalLoop=1;jettySize=auto;html=1;endArrow=none;endFill=0;fontStyle=0;strokeWidth=1;labelBackgroundColor=none;fontColor=default;" edge="1" parent="1" source="hyvLnoyUgG9UPHhdJang-152" target="hyvLnoyUgG9UPHhdJang-158">
          <mxGeometry relative="1" as="geometry" />
        </mxCell>
        <mxCell id="hyvLnoyUgG9UPHhdJang-151" style="edgeStyle=orthogonalEdgeStyle;rounded=0;orthogonalLoop=1;jettySize=auto;html=1;endArrow=none;endFill=0;fontStyle=0;strokeWidth=1;labelBackgroundColor=none;fontColor=default;" edge="1" parent="1" source="hyvLnoyUgG9UPHhdJang-152" target="hyvLnoyUgG9UPHhdJang-165">
          <mxGeometry relative="1" as="geometry" />
        </mxCell>
        <mxCell id="hyvLnoyUgG9UPHhdJang-152" value="&lt;font style=&quot;font-size: 16px;&quot;&gt;购票服务&lt;/font&gt;" style="rounded=0;whiteSpace=wrap;html=1;fontStyle=0;strokeWidth=1;labelBackgroundColor=none;" vertex="1" parent="1">
          <mxGeometry x="267.25" y="2836" width="140" height="50" as="geometry" />
        </mxCell>
        <mxCell id="hyvLnoyUgG9UPHhdJang-153" style="edgeStyle=orthogonalEdgeStyle;rounded=0;orthogonalLoop=1;jettySize=auto;html=1;fontStyle=0;strokeWidth=1;endArrow=none;endFill=0;labelBackgroundColor=none;fontColor=default;" edge="1" parent="1" source="hyvLnoyUgG9UPHhdJang-158" target="hyvLnoyUgG9UPHhdJang-174">
          <mxGeometry relative="1" as="geometry" />
        </mxCell>
        <mxCell id="hyvLnoyUgG9UPHhdJang-154" style="edgeStyle=orthogonalEdgeStyle;rounded=0;orthogonalLoop=1;jettySize=auto;html=1;entryX=0.5;entryY=0;entryDx=0;entryDy=0;fontStyle=0;strokeWidth=1;endArrow=none;endFill=0;labelBackgroundColor=none;fontColor=default;" edge="1" parent="1" source="hyvLnoyUgG9UPHhdJang-158" target="hyvLnoyUgG9UPHhdJang-173">
          <mxGeometry relative="1" as="geometry" />
        </mxCell>
        <mxCell id="hyvLnoyUgG9UPHhdJang-155" style="edgeStyle=orthogonalEdgeStyle;rounded=0;orthogonalLoop=1;jettySize=auto;html=1;fontStyle=0;strokeWidth=1;endArrow=none;endFill=0;labelBackgroundColor=none;fontColor=default;" edge="1" parent="1" source="hyvLnoyUgG9UPHhdJang-158" target="hyvLnoyUgG9UPHhdJang-166">
          <mxGeometry relative="1" as="geometry" />
        </mxCell>
        <mxCell id="hyvLnoyUgG9UPHhdJang-156" style="edgeStyle=orthogonalEdgeStyle;rounded=0;orthogonalLoop=1;jettySize=auto;html=1;fontStyle=0;strokeWidth=1;endArrow=none;endFill=0;labelBackgroundColor=none;fontColor=default;" edge="1" parent="1" source="hyvLnoyUgG9UPHhdJang-158" target="hyvLnoyUgG9UPHhdJang-202">
          <mxGeometry relative="1" as="geometry" />
        </mxCell>
        <mxCell id="hyvLnoyUgG9UPHhdJang-157" style="edgeStyle=orthogonalEdgeStyle;rounded=0;orthogonalLoop=1;jettySize=auto;html=1;fontStyle=0;strokeWidth=1;endArrow=none;endFill=0;labelBackgroundColor=none;fontColor=default;" edge="1" parent="1" source="hyvLnoyUgG9UPHhdJang-158" target="hyvLnoyUgG9UPHhdJang-172">
          <mxGeometry relative="1" as="geometry" />
        </mxCell>
        <mxCell id="hyvLnoyUgG9UPHhdJang-158" value="&lt;span style=&quot;font-size: 16px;&quot;&gt;车站管理&lt;/span&gt;" style="rounded=0;whiteSpace=wrap;html=1;fontStyle=0;strokeWidth=1;labelBackgroundColor=none;" vertex="1" parent="1">
          <mxGeometry x="114.25" y="2933" width="210" height="39" as="geometry" />
        </mxCell>
        <mxCell id="hyvLnoyUgG9UPHhdJang-159" style="edgeStyle=orthogonalEdgeStyle;rounded=0;orthogonalLoop=1;jettySize=auto;html=1;fontStyle=0;strokeWidth=1;endArrow=none;endFill=0;labelBackgroundColor=none;fontColor=default;" edge="1" parent="1" source="hyvLnoyUgG9UPHhdJang-165" target="hyvLnoyUgG9UPHhdJang-201">
          <mxGeometry relative="1" as="geometry" />
        </mxCell>
        <mxCell id="hyvLnoyUgG9UPHhdJang-160" style="edgeStyle=orthogonalEdgeStyle;rounded=0;orthogonalLoop=1;jettySize=auto;html=1;fontStyle=0;strokeWidth=1;endArrow=none;endFill=0;labelBackgroundColor=none;fontColor=default;" edge="1" parent="1" source="hyvLnoyUgG9UPHhdJang-165" target="hyvLnoyUgG9UPHhdJang-205">
          <mxGeometry relative="1" as="geometry" />
        </mxCell>
        <mxCell id="hyvLnoyUgG9UPHhdJang-161" style="edgeStyle=orthogonalEdgeStyle;rounded=0;orthogonalLoop=1;jettySize=auto;html=1;fontStyle=0;strokeWidth=1;endArrow=none;endFill=0;labelBackgroundColor=none;fontColor=default;" edge="1" parent="1" source="hyvLnoyUgG9UPHhdJang-165" target="hyvLnoyUgG9UPHhdJang-203">
          <mxGeometry relative="1" as="geometry" />
        </mxCell>
        <mxCell id="hyvLnoyUgG9UPHhdJang-162" style="edgeStyle=orthogonalEdgeStyle;rounded=0;orthogonalLoop=1;jettySize=auto;html=1;fontStyle=0;strokeWidth=1;endArrow=none;endFill=0;labelBackgroundColor=none;fontColor=default;" edge="1" parent="1" source="hyvLnoyUgG9UPHhdJang-165" target="hyvLnoyUgG9UPHhdJang-167">
          <mxGeometry relative="1" as="geometry" />
        </mxCell>
        <mxCell id="hyvLnoyUgG9UPHhdJang-163" style="edgeStyle=orthogonalEdgeStyle;rounded=0;orthogonalLoop=1;jettySize=auto;html=1;fontStyle=0;strokeWidth=1;endArrow=none;endFill=0;labelBackgroundColor=none;fontColor=default;" edge="1" parent="1" source="hyvLnoyUgG9UPHhdJang-165" target="hyvLnoyUgG9UPHhdJang-204">
          <mxGeometry relative="1" as="geometry" />
        </mxCell>
        <mxCell id="hyvLnoyUgG9UPHhdJang-164" style="edgeStyle=orthogonalEdgeStyle;rounded=0;orthogonalLoop=1;jettySize=auto;html=1;fontStyle=0;strokeWidth=1;endArrow=none;endFill=0;labelBackgroundColor=none;fontColor=default;" edge="1" parent="1" source="hyvLnoyUgG9UPHhdJang-165" target="hyvLnoyUgG9UPHhdJang-168">
          <mxGeometry relative="1" as="geometry" />
        </mxCell>
        <mxCell id="hyvLnoyUgG9UPHhdJang-165" value="&lt;span style=&quot;font-size: 16px;&quot;&gt;车票管理&lt;/span&gt;" style="rounded=0;whiteSpace=wrap;html=1;fontStyle=0;strokeWidth=1;labelBackgroundColor=none;" vertex="1" parent="1">
          <mxGeometry x="364.75" y="2933" width="210" height="39" as="geometry" />
        </mxCell>
        <mxCell id="hyvLnoyUgG9UPHhdJang-166" value="&lt;span style=&quot;font-size: 16px;&quot;&gt;多条件查询车次&lt;/span&gt;" style="rounded=0;whiteSpace=wrap;html=1;fontStyle=0;strokeWidth=1;labelBackgroundColor=none;" vertex="1" parent="1">
          <mxGeometry x="250.25" y="3020" width="30" height="180" as="geometry" />
        </mxCell>
        <mxCell id="hyvLnoyUgG9UPHhdJang-167" value="&lt;span style=&quot;font-size: 16px;&quot;&gt;查询余票信息&lt;/span&gt;" style="rounded=0;whiteSpace=wrap;html=1;fontStyle=0;strokeWidth=1;labelBackgroundColor=none;" vertex="1" parent="1">
          <mxGeometry x="350.25" y="3020" width="30" height="180" as="geometry" />
        </mxCell>
        <mxCell id="hyvLnoyUgG9UPHhdJang-168" value="&lt;span style=&quot;font-size: 16px;&quot;&gt;多人邻座选择算法&lt;/span&gt;" style="rounded=0;whiteSpace=wrap;html=1;fontStyle=0;strokeWidth=1;labelBackgroundColor=none;" vertex="1" parent="1">
          <mxGeometry x="563.75" y="3020" width="30" height="180" as="geometry" />
        </mxCell>
        <mxCell id="hyvLnoyUgG9UPHhdJang-169" value="&lt;span style=&quot;font-size: 16px;&quot;&gt;退还用户金额&lt;/span&gt;" style="rounded=0;whiteSpace=wrap;html=1;fontStyle=0;strokeWidth=1;labelBackgroundColor=none;" vertex="1" parent="1">
          <mxGeometry x="1093.63" y="3000" width="30" height="180" as="geometry" />
        </mxCell>
        <mxCell id="hyvLnoyUgG9UPHhdJang-170" value="&lt;span style=&quot;font-size: 16px;&quot;&gt;车座信息回滚&lt;/span&gt;" style="rounded=0;whiteSpace=wrap;html=1;fontStyle=0;strokeWidth=1;labelBackgroundColor=none;" vertex="1" parent="1">
          <mxGeometry x="1131.13" y="3000" width="30" height="180" as="geometry" />
        </mxCell>
        <mxCell id="hyvLnoyUgG9UPHhdJang-171" value="&lt;span style=&quot;font-size: 16px;&quot;&gt;订单状态反转&lt;/span&gt;" style="rounded=0;whiteSpace=wrap;html=1;fontStyle=0;strokeWidth=1;labelBackgroundColor=none;" vertex="1" parent="1">
          <mxGeometry x="1170.63" y="3000" width="30" height="180" as="geometry" />
        </mxCell>
        <mxCell id="hyvLnoyUgG9UPHhdJang-172" value="&lt;span style=&quot;font-size: 16px;&quot;&gt;根据城市查询车站&lt;/span&gt;" style="rounded=0;whiteSpace=wrap;html=1;fontStyle=0;strokeWidth=1;labelBackgroundColor=none;" vertex="1" parent="1">
          <mxGeometry x="113.25" y="3020" width="30" height="180" as="geometry" />
        </mxCell>
        <mxCell id="hyvLnoyUgG9UPHhdJang-173" value="&lt;span style=&quot;font-size: 16px;&quot;&gt;查询站点集合&lt;/span&gt;" style="rounded=0;whiteSpace=wrap;html=1;fontStyle=0;strokeWidth=1;labelBackgroundColor=none;" vertex="1" parent="1">
          <mxGeometry x="159.25" y="3020" width="30" height="180" as="geometry" />
        </mxCell>
        <mxCell id="hyvLnoyUgG9UPHhdJang-174" value="&lt;span style=&quot;font-size: 16px;&quot;&gt;根据列车ID查询站点&lt;/span&gt;" style="rounded=0;whiteSpace=wrap;html=1;fontStyle=0;strokeWidth=1;labelBackgroundColor=none;" vertex="1" parent="1">
          <mxGeometry x="204.25" y="3020" width="30" height="180" as="geometry" />
        </mxCell>
        <mxCell id="hyvLnoyUgG9UPHhdJang-210" style="edgeStyle=orthogonalEdgeStyle;rounded=0;orthogonalLoop=1;jettySize=auto;html=1;endArrow=none;endFill=0;strokeWidth=1;fontStyle=0;labelBackgroundColor=none;fontColor=default;" edge="1" parent="1" source="hyvLnoyUgG9UPHhdJang-178" target="hyvLnoyUgG9UPHhdJang-192">
          <mxGeometry relative="1" as="geometry" />
        </mxCell>
        <mxCell id="hyvLnoyUgG9UPHhdJang-211" style="edgeStyle=orthogonalEdgeStyle;rounded=0;orthogonalLoop=1;jettySize=auto;html=1;endArrow=none;endFill=0;strokeWidth=1;fontStyle=0;labelBackgroundColor=none;fontColor=default;" edge="1" parent="1">
          <mxGeometry relative="1" as="geometry">
            <mxPoint x="1139.0869565217395" y="2859" as="sourcePoint" />
            <mxPoint x="967" y="2917" as="targetPoint" />
            <Array as="points">
              <mxPoint x="1139" y="2890" />
              <mxPoint x="967" y="2890" />
            </Array>
          </mxGeometry>
        </mxCell>
        <mxCell id="hyvLnoyUgG9UPHhdJang-212" style="edgeStyle=orthogonalEdgeStyle;rounded=0;orthogonalLoop=1;jettySize=auto;html=1;endArrow=none;endFill=0;strokeWidth=1;fontStyle=0;labelBackgroundColor=none;fontColor=default;" edge="1" parent="1" target="hyvLnoyUgG9UPHhdJang-197">
          <mxGeometry relative="1" as="geometry">
            <mxPoint x="1139" y="2890" as="sourcePoint" />
          </mxGeometry>
        </mxCell>
        <mxCell id="hyvLnoyUgG9UPHhdJang-178" value="&lt;font style=&quot;font-size: 16px;&quot;&gt;订单服务&lt;/font&gt;" style="rounded=0;whiteSpace=wrap;html=1;fontStyle=0;strokeWidth=1;labelBackgroundColor=none;" vertex="1" parent="1">
          <mxGeometry x="1069.13" y="2810" width="140" height="50" as="geometry" />
        </mxCell>
        <mxCell id="hyvLnoyUgG9UPHhdJang-179" style="edgeStyle=orthogonalEdgeStyle;rounded=0;orthogonalLoop=1;jettySize=auto;html=1;entryX=0.5;entryY=0;entryDx=0;entryDy=0;fontStyle=0;strokeWidth=1;endArrow=none;endFill=0;labelBackgroundColor=none;fontColor=default;" edge="1" parent="1" source="hyvLnoyUgG9UPHhdJang-184" target="hyvLnoyUgG9UPHhdJang-207">
          <mxGeometry relative="1" as="geometry" />
        </mxCell>
        <mxCell id="hyvLnoyUgG9UPHhdJang-180" style="edgeStyle=orthogonalEdgeStyle;rounded=0;orthogonalLoop=1;jettySize=auto;html=1;fontStyle=0;strokeWidth=1;endArrow=none;endFill=0;labelBackgroundColor=none;fontColor=default;" edge="1" parent="1" source="hyvLnoyUgG9UPHhdJang-184" target="hyvLnoyUgG9UPHhdJang-206">
          <mxGeometry relative="1" as="geometry" />
        </mxCell>
        <mxCell id="hyvLnoyUgG9UPHhdJang-181" style="edgeStyle=orthogonalEdgeStyle;rounded=0;orthogonalLoop=1;jettySize=auto;html=1;fontStyle=0;strokeWidth=1;endArrow=none;endFill=0;labelBackgroundColor=none;fontColor=default;" edge="1" parent="1" source="hyvLnoyUgG9UPHhdJang-184" target="hyvLnoyUgG9UPHhdJang-185">
          <mxGeometry relative="1" as="geometry" />
        </mxCell>
        <mxCell id="hyvLnoyUgG9UPHhdJang-182" style="edgeStyle=orthogonalEdgeStyle;rounded=0;orthogonalLoop=1;jettySize=auto;html=1;fontStyle=0;strokeWidth=1;endArrow=none;endFill=0;labelBackgroundColor=none;fontColor=default;" edge="1" parent="1" source="hyvLnoyUgG9UPHhdJang-184" target="hyvLnoyUgG9UPHhdJang-186">
          <mxGeometry relative="1" as="geometry" />
        </mxCell>
        <mxCell id="hyvLnoyUgG9UPHhdJang-183" style="edgeStyle=orthogonalEdgeStyle;rounded=0;orthogonalLoop=1;jettySize=auto;html=1;fontStyle=0;strokeWidth=1;endArrow=none;endFill=0;labelBackgroundColor=none;fontColor=default;" edge="1" parent="1" source="hyvLnoyUgG9UPHhdJang-184" target="hyvLnoyUgG9UPHhdJang-187">
          <mxGeometry relative="1" as="geometry" />
        </mxCell>
        <mxCell id="hyvLnoyUgG9UPHhdJang-184" value="&lt;span style=&quot;font-size: 16px;&quot;&gt;创建车票订单&lt;/span&gt;" style="rounded=0;whiteSpace=wrap;html=1;fontStyle=0;strokeWidth=1;labelBackgroundColor=none;" vertex="1" parent="1">
          <mxGeometry x="862.25" y="2918" width="210" height="39" as="geometry" />
        </mxCell>
        <mxCell id="hyvLnoyUgG9UPHhdJang-185" value="&lt;span style=&quot;font-size: 16px;&quot;&gt;雪花算法实现唯一ID&lt;/span&gt;" style="rounded=0;whiteSpace=wrap;html=1;fontStyle=0;strokeWidth=1;labelBackgroundColor=none;" vertex="1" parent="1">
          <mxGeometry x="952.25" y="3000" width="30" height="180" as="geometry" />
        </mxCell>
        <mxCell id="hyvLnoyUgG9UPHhdJang-186" value="&lt;span style=&quot;font-size: 16px;&quot;&gt;延迟关闭订单&lt;/span&gt;" style="rounded=0;whiteSpace=wrap;html=1;fontStyle=0;strokeWidth=1;labelBackgroundColor=none;" vertex="1" parent="1">
          <mxGeometry x="997.25" y="3000" width="30" height="180" as="geometry" />
        </mxCell>
        <mxCell id="hyvLnoyUgG9UPHhdJang-187" value="&lt;span style=&quot;font-size: 16px;&quot;&gt;防止订单重复提交&lt;/span&gt;" style="rounded=0;whiteSpace=wrap;html=1;fontStyle=0;strokeWidth=1;labelBackgroundColor=none;" vertex="1" parent="1">
          <mxGeometry x="1042.25" y="3000" width="30" height="180" as="geometry" />
        </mxCell>
        <mxCell id="hyvLnoyUgG9UPHhdJang-188" style="edgeStyle=orthogonalEdgeStyle;rounded=0;orthogonalLoop=1;jettySize=auto;html=1;fontStyle=0;strokeWidth=1;endArrow=none;endFill=0;labelBackgroundColor=none;fontColor=default;" edge="1" parent="1" source="hyvLnoyUgG9UPHhdJang-192" target="hyvLnoyUgG9UPHhdJang-169">
          <mxGeometry relative="1" as="geometry" />
        </mxCell>
        <mxCell id="hyvLnoyUgG9UPHhdJang-189" style="edgeStyle=orthogonalEdgeStyle;rounded=0;orthogonalLoop=1;jettySize=auto;html=1;entryX=0.5;entryY=0;entryDx=0;entryDy=0;fontStyle=0;strokeWidth=1;endArrow=none;endFill=0;labelBackgroundColor=none;fontColor=default;" edge="1" parent="1" source="hyvLnoyUgG9UPHhdJang-192" target="hyvLnoyUgG9UPHhdJang-170">
          <mxGeometry relative="1" as="geometry" />
        </mxCell>
        <mxCell id="hyvLnoyUgG9UPHhdJang-190" style="edgeStyle=orthogonalEdgeStyle;rounded=0;orthogonalLoop=1;jettySize=auto;html=1;entryX=0.5;entryY=0;entryDx=0;entryDy=0;fontStyle=0;strokeWidth=1;endArrow=none;endFill=0;labelBackgroundColor=none;fontColor=default;" edge="1" parent="1" source="hyvLnoyUgG9UPHhdJang-192" target="hyvLnoyUgG9UPHhdJang-171">
          <mxGeometry relative="1" as="geometry" />
        </mxCell>
        <mxCell id="hyvLnoyUgG9UPHhdJang-191" style="edgeStyle=orthogonalEdgeStyle;rounded=0;orthogonalLoop=1;jettySize=auto;html=1;fontStyle=0;strokeWidth=1;endArrow=none;endFill=0;labelBackgroundColor=none;fontColor=default;" edge="1" parent="1" source="hyvLnoyUgG9UPHhdJang-192" target="hyvLnoyUgG9UPHhdJang-208">
          <mxGeometry relative="1" as="geometry" />
        </mxCell>
        <mxCell id="hyvLnoyUgG9UPHhdJang-192" value="&lt;span style=&quot;font-size: 16px;&quot;&gt;取消订单&lt;/span&gt;" style="rounded=0;whiteSpace=wrap;html=1;fontStyle=0;strokeWidth=1;labelBackgroundColor=none;" vertex="1" parent="1">
          <mxGeometry x="1089.75" y="2920" width="153.75" height="39" as="geometry" />
        </mxCell>
        <mxCell id="hyvLnoyUgG9UPHhdJang-193" style="edgeStyle=orthogonalEdgeStyle;rounded=0;orthogonalLoop=1;jettySize=auto;html=1;fontStyle=0;strokeWidth=1;endArrow=none;endFill=0;labelBackgroundColor=none;fontColor=default;" edge="1" parent="1" source="hyvLnoyUgG9UPHhdJang-197" target="hyvLnoyUgG9UPHhdJang-198">
          <mxGeometry relative="1" as="geometry" />
        </mxCell>
        <mxCell id="hyvLnoyUgG9UPHhdJang-194" style="edgeStyle=orthogonalEdgeStyle;rounded=0;orthogonalLoop=1;jettySize=auto;html=1;fontStyle=0;strokeWidth=1;endArrow=none;endFill=0;labelBackgroundColor=none;fontColor=default;" edge="1" parent="1" source="hyvLnoyUgG9UPHhdJang-197" target="hyvLnoyUgG9UPHhdJang-199">
          <mxGeometry relative="1" as="geometry" />
        </mxCell>
        <mxCell id="hyvLnoyUgG9UPHhdJang-195" style="edgeStyle=orthogonalEdgeStyle;rounded=0;orthogonalLoop=1;jettySize=auto;html=1;entryX=0.5;entryY=0;entryDx=0;entryDy=0;fontStyle=0;strokeWidth=1;endArrow=none;endFill=0;labelBackgroundColor=none;fontColor=default;" edge="1" parent="1" source="hyvLnoyUgG9UPHhdJang-197" target="hyvLnoyUgG9UPHhdJang-200">
          <mxGeometry relative="1" as="geometry" />
        </mxCell>
        <mxCell id="hyvLnoyUgG9UPHhdJang-196" style="edgeStyle=orthogonalEdgeStyle;rounded=0;orthogonalLoop=1;jettySize=auto;html=1;fontStyle=0;strokeWidth=1;endArrow=none;endFill=0;labelBackgroundColor=none;fontColor=default;" edge="1" parent="1" source="hyvLnoyUgG9UPHhdJang-197" target="hyvLnoyUgG9UPHhdJang-209">
          <mxGeometry relative="1" as="geometry" />
        </mxCell>
        <mxCell id="hyvLnoyUgG9UPHhdJang-197" value="&lt;span style=&quot;font-size: 16px;&quot;&gt;订单查询&lt;/span&gt;" style="rounded=0;whiteSpace=wrap;html=1;fontStyle=0;strokeWidth=1;labelBackgroundColor=none;" vertex="1" parent="1">
          <mxGeometry x="1269.13" y="2918" width="142.25" height="39" as="geometry" />
        </mxCell>
        <mxCell id="hyvLnoyUgG9UPHhdJang-198" value="&lt;span style=&quot;font-size: 16px;&quot;&gt;敏感数据查询脱敏&lt;/span&gt;" style="rounded=0;whiteSpace=wrap;html=1;fontStyle=0;strokeWidth=1;labelBackgroundColor=none;" vertex="1" parent="1">
          <mxGeometry x="1257.38" y="3000" width="30" height="180" as="geometry" />
        </mxCell>
        <mxCell id="hyvLnoyUgG9UPHhdJang-199" value="&lt;span style=&quot;font-size: 16px;&quot;&gt;敏感数据入库加密&lt;/span&gt;" style="rounded=0;whiteSpace=wrap;html=1;fontStyle=0;strokeWidth=1;labelBackgroundColor=none;" vertex="1" parent="1">
          <mxGeometry x="1302.38" y="3000" width="30" height="180" as="geometry" />
        </mxCell>
        <mxCell id="hyvLnoyUgG9UPHhdJang-200" value="&lt;span style=&quot;font-size: 16px;&quot;&gt;乘车人查询本人订单&lt;/span&gt;" style="rounded=0;whiteSpace=wrap;html=1;fontStyle=0;strokeWidth=1;labelBackgroundColor=none;" vertex="1" parent="1">
          <mxGeometry x="1347.38" y="3000" width="30" height="180" as="geometry" />
        </mxCell>
        <mxCell id="hyvLnoyUgG9UPHhdJang-201" value="&lt;span style=&quot;font-size: 16px;&quot;&gt;余票扣减&lt;/span&gt;" style="rounded=0;whiteSpace=wrap;html=1;fontStyle=0;strokeWidth=1;labelBackgroundColor=none;" vertex="1" parent="1">
          <mxGeometry x="435.25" y="3020" width="30" height="180" as="geometry" />
        </mxCell>
        <mxCell id="hyvLnoyUgG9UPHhdJang-202" value="&lt;span style=&quot;font-size: 16px;&quot;&gt;车站信息构建缓存&lt;/span&gt;" style="rounded=0;whiteSpace=wrap;html=1;fontStyle=0;strokeWidth=1;labelBackgroundColor=none;" vertex="1" parent="1">
          <mxGeometry x="295.25" y="3020" width="30" height="180" as="geometry" />
        </mxCell>
        <mxCell id="hyvLnoyUgG9UPHhdJang-203" value="&lt;span style=&quot;font-size: 16px;&quot;&gt;余票信息构建缓存&lt;/span&gt;" style="rounded=0;whiteSpace=wrap;html=1;fontStyle=0;strokeWidth=1;labelBackgroundColor=none;" vertex="1" parent="1">
          <mxGeometry x="393.25" y="3020" width="30" height="180" as="geometry" />
        </mxCell>
        <mxCell id="hyvLnoyUgG9UPHhdJang-204" value="&lt;span style=&quot;font-size: 16px;&quot;&gt;用户新增车票&lt;/span&gt;" style="rounded=0;whiteSpace=wrap;html=1;fontStyle=0;strokeWidth=1;labelBackgroundColor=none;" vertex="1" parent="1">
          <mxGeometry x="521.25" y="3020" width="30" height="180" as="geometry" />
        </mxCell>
        <mxCell id="hyvLnoyUgG9UPHhdJang-205" value="&lt;span style=&quot;font-size: 16px;&quot;&gt;分布式锁解决超卖&lt;/span&gt;" style="rounded=0;whiteSpace=wrap;html=1;fontStyle=0;strokeWidth=1;labelBackgroundColor=none;" vertex="1" parent="1">
          <mxGeometry x="478.25" y="3020" width="30" height="180" as="geometry" />
        </mxCell>
        <mxCell id="hyvLnoyUgG9UPHhdJang-206" value="&lt;span style=&quot;font-size: 16px;&quot;&gt;订单表分库分表&lt;/span&gt;" style="rounded=0;whiteSpace=wrap;html=1;fontStyle=0;strokeWidth=1;labelBackgroundColor=none;" vertex="1" parent="1">
          <mxGeometry x="907.25" y="3000" width="30" height="180" as="geometry" />
        </mxCell>
        <mxCell id="hyvLnoyUgG9UPHhdJang-207" value="&lt;span style=&quot;font-size: 16px;&quot;&gt;基因算法&lt;/span&gt;" style="rounded=0;whiteSpace=wrap;html=1;fontStyle=0;strokeWidth=1;labelBackgroundColor=none;" vertex="1" parent="1">
          <mxGeometry x="861.75" y="3000" width="30" height="180" as="geometry" />
        </mxCell>
        <mxCell id="hyvLnoyUgG9UPHhdJang-208" value="&lt;span style=&quot;font-size: 16px;&quot;&gt;延时取消订单&lt;/span&gt;" style="rounded=0;whiteSpace=wrap;html=1;fontStyle=0;strokeWidth=1;labelBackgroundColor=none;" vertex="1" parent="1">
          <mxGeometry x="1209.13" y="3000" width="30" height="180" as="geometry" />
        </mxCell>
        <mxCell id="hyvLnoyUgG9UPHhdJang-209" value="&lt;span style=&quot;font-size: 16px;&quot;&gt;订单ID查询订单&lt;/span&gt;" style="rounded=0;whiteSpace=wrap;html=1;fontStyle=0;strokeWidth=1;labelBackgroundColor=none;" vertex="1" parent="1">
          <mxGeometry x="1392.38" y="3000" width="30" height="180" as="geometry" />
        </mxCell>
        <mxCell id="hyvLnoyUgG9UPHhdJang-228" style="edgeStyle=orthogonalEdgeStyle;rounded=0;orthogonalLoop=1;jettySize=auto;html=1;endArrow=none;endFill=0;" edge="1" parent="1" source="hyvLnoyUgG9UPHhdJang-218" target="hyvLnoyUgG9UPHhdJang-222">
          <mxGeometry relative="1" as="geometry" />
        </mxCell>
        <mxCell id="hyvLnoyUgG9UPHhdJang-229" style="edgeStyle=orthogonalEdgeStyle;rounded=0;orthogonalLoop=1;jettySize=auto;html=1;endArrow=none;endFill=0;" edge="1" parent="1" source="hyvLnoyUgG9UPHhdJang-218" target="hyvLnoyUgG9UPHhdJang-221">
          <mxGeometry relative="1" as="geometry" />
        </mxCell>
        <mxCell id="hyvLnoyUgG9UPHhdJang-230" style="edgeStyle=orthogonalEdgeStyle;rounded=0;orthogonalLoop=1;jettySize=auto;html=1;endArrow=none;endFill=0;" edge="1" parent="1" source="hyvLnoyUgG9UPHhdJang-218" target="hyvLnoyUgG9UPHhdJang-223">
          <mxGeometry relative="1" as="geometry" />
        </mxCell>
        <mxCell id="hyvLnoyUgG9UPHhdJang-231" style="edgeStyle=orthogonalEdgeStyle;rounded=0;orthogonalLoop=1;jettySize=auto;html=1;endArrow=none;endFill=0;" edge="1" parent="1" source="hyvLnoyUgG9UPHhdJang-218" target="hyvLnoyUgG9UPHhdJang-219">
          <mxGeometry relative="1" as="geometry">
            <Array as="points">
              <mxPoint x="306" y="1942" />
              <mxPoint x="822" y="1942" />
            </Array>
          </mxGeometry>
        </mxCell>
        <mxCell id="hyvLnoyUgG9UPHhdJang-232" style="edgeStyle=orthogonalEdgeStyle;rounded=0;orthogonalLoop=1;jettySize=auto;html=1;endArrow=none;endFill=0;" edge="1" parent="1" source="hyvLnoyUgG9UPHhdJang-218" target="hyvLnoyUgG9UPHhdJang-220">
          <mxGeometry relative="1" as="geometry">
            <Array as="points">
              <mxPoint x="306" y="1941" />
              <mxPoint x="-210" y="1941" />
            </Array>
          </mxGeometry>
        </mxCell>
        <mxCell id="hyvLnoyUgG9UPHhdJang-218" value="&lt;font style=&quot;font-size: 30px;&quot;&gt;铁路购票系统&lt;/font&gt;" style="rounded=0;whiteSpace=wrap;html=1;fontStyle=0;strokeWidth=1.5;labelBackgroundColor=none;" vertex="1" parent="1">
          <mxGeometry x="97.13000000000001" y="1820" width="417.75" height="72" as="geometry" />
        </mxCell>
        <mxCell id="hyvLnoyUgG9UPHhdJang-219" value="&lt;font style=&quot;font-size: 26px;&quot;&gt;支付服务&lt;/font&gt;" style="rounded=0;whiteSpace=wrap;html=1;fontStyle=0;strokeWidth=1;fontSize=26;labelBackgroundColor=none;" vertex="1" parent="1">
          <mxGeometry x="716.75" y="1991" width="210" height="80" as="geometry" />
        </mxCell>
        <mxCell id="hyvLnoyUgG9UPHhdJang-220" value="&lt;span style=&quot;font-size: 26px;&quot;&gt;网关服务&lt;/span&gt;" style="rounded=0;whiteSpace=wrap;html=1;strokeWidth=1;fontStyle=0;fontSize=26;labelBackgroundColor=none;" vertex="1" parent="1">
          <mxGeometry x="-315" y="1991" width="210" height="80" as="geometry" />
        </mxCell>
        <mxCell id="hyvLnoyUgG9UPHhdJang-221" value="&lt;font style=&quot;font-size: 26px;&quot;&gt;用户服务&lt;/font&gt;" style="rounded=0;whiteSpace=wrap;html=1;fontStyle=0;strokeWidth=1;fontSize=26;labelBackgroundColor=none;" vertex="1" parent="1">
          <mxGeometry x="-57" y="1991" width="210" height="80" as="geometry" />
        </mxCell>
        <mxCell id="hyvLnoyUgG9UPHhdJang-222" value="&lt;font style=&quot;font-size: 26px;&quot;&gt;购票服务&lt;/font&gt;" style="rounded=0;whiteSpace=wrap;html=1;fontStyle=0;strokeWidth=1;fontSize=26;labelBackgroundColor=none;" vertex="1" parent="1">
          <mxGeometry x="201" y="1991" width="210" height="80" as="geometry" />
        </mxCell>
        <mxCell id="hyvLnoyUgG9UPHhdJang-223" value="&lt;font style=&quot;font-size: 26px;&quot;&gt;订单服务&lt;/font&gt;" style="rounded=0;whiteSpace=wrap;html=1;fontStyle=0;strokeWidth=1;fontSize=26;labelBackgroundColor=none;" vertex="1" parent="1">
          <mxGeometry x="459" y="1991" width="210" height="80" as="geometry" />
        </mxCell>
      </root>
    </mxGraphModel>
  </diagram>
</mxfile>
